<?xml version="1.0" encoding="utf-8"?>
<!-- Generator: Adobe Illustrator 19.0.0, SVG Export Plug-In . SVG Version: 6.00 Build 0)  -->
<svg version="1.1" id="Layer_1" xmlns="http://www.w3.org/2000/svg" xmlns:xlink="http://www.w3.org/1999/xlink" x="0px" y="0px"
	 viewBox="0 0 1505.3 740.6" style="enable-background:new 0 0 1505.3 740.6;" xml:space="preserve">
<style type="text/css">
	.st0{fill:#E1E7E5;}
	.st1{fill:#FFCF53;}
	.st2{fill:#6BA464;}
	.st3{fill:none;stroke:#F9FCFC;stroke-width:4;stroke-miterlimit:10;}
	.st4{fill:none;stroke:#F9FCFC;stroke-width:4;stroke-miterlimit:10;stroke-dasharray:20.5921,20.5921;}
	.st5{fill:none;stroke:#F9FCFC;stroke-width:4;stroke-miterlimit:10;stroke-dasharray:21.292,21.292;}
	.st6{fill:none;stroke:#F9FCFC;stroke-width:4;stroke-miterlimit:10;stroke-dasharray:15.4768,15.4768;}
	.st7{fill:none;stroke:#F9FCFC;stroke-width:4;stroke-miterlimit:10;stroke-dasharray:19.9296,19.9296;}
	.st8{fill:#84BE72;}
	.st9{fill:#8B7870;}
	.st10{fill-rule:evenodd;clip-rule:evenodd;fill:#5A7F4A;}
	.st11{fill-rule:evenodd;clip-rule:evenodd;fill:#7F6C6B;}
	.st12{fill:#6D7B84;}
	.st13{fill:#55636B;}
	.st14{fill:#79868E;}
	.st15{fill:#86929B;}
	.st16{fill:#B2BCC2;}
	.st17{fill:#AF883D;}
	.st18{fill:#996F2B;}
	.st19{fill:#D1A646;}
	.st20{fill:#0E6E4D;}
	.st21{fill:#513E33;}
	.st22{fill:#C1A693;}
	.st23{fill:#C9B1A1;}
	.st24{fill:#6F5A4D;}
	.st25{fill:#987E6E;}
	.st26{fill:#A0887A;}
	.st27{fill:#D3BCAC;}
	.st28{fill:#D35D5A;}
	.st29{fill:#BD4C4C;}
	.st30{fill:#9B3535;}
	.st31{fill:#B29987;}
	.st32{fill:#EDD8CC;}
	.st33{fill:#842A2A;}
    
    
#cloud1{
 
    -webkit-animation: animateClouds 8s linear infinite;  
  -moz-animation:    animateClouds 8s linear infinite; 
  -o-animation:      animateClouds 8s linear infinite; 
  animation:        animateClouds 8s linear infinite;  
    fill:#000;
}
@keyframes animateClouds {
    0% {transform : translateX(-500px); }
    to { transform : translateX(1000px) }
}
@-webkit-keyframes animateClouds {
    0% {  -webkit-transform : translateX(-500px); }
    100% {  -webkit-transform : translateX(1600px) }
}
    
</style>
<path  id="cloud1" class="st0" d="M686.8,147.8h-27.2c-3.2,0-5.9-2.6-5.9-5.9v0c0-3.2,2.6-5.9,5.9-5.9h21.2h6c3.2,0,5.4-2.4,5.4-5.6
	c0-3.2-2.3-5.3-5.4-5.3l-105.6,0c-3,0-5.6,2.3-5.7,5.3c-0.1,3.1,2.4,5.6,5.5,5.6h51.3c3.2,0,5.9,2.6,5.9,5.9v0
	c0,3.2-2.6,5.9-5.9,5.9h-41.4c-2.4,0-4.4,1.9-4.4,4.3c-0.1,3.7,2.9,6.7,6.5,6.7h93.9c3.1,0,5.6-2.2,5.7-5.3
	C692.6,150.4,689.9,147.8,686.8,147.8z"/>
<path id="cloud2" class="st0" d="M531.2,14.2c0,3.5-2.6,6.4-6.1,6.4l-101.3,0.3c-2.4,0.2-7,1.6-7,7.1c0,5.9,4.8,7.3,7.2,7.3h56.5
	c3.5,0,6.4,2.3,6.2,5.9c-0.2,3-2.9,5.2-5.8,5.2l-73.9,0c-4.2,0-7.6,3.4-7.6,7.6v0c0,4.2,3.4,7.6,7.6,7.6h44.7c3.8,0,6.7,4.1,5.5,8.1
	c-0.8,2.7-3.4,4.4-6.2,4.4l-121.9,0c-3.6,0-6.6-3.2-6.1-7c0.4-3.2,3.3-5.6,6.5-5.6l42.9,0c4.5,0,8-3.8,7.6-8.4
	c-0.4-4-3.9-6.9-7.9-6.9l-51.7,0c-3.4,0-6.1-2.4-6.2-5.8c0,0.1,0,0.2,0,0.2h-7.5c-1.8,0-3.2-1.5-3.1-3.3c0-1.3,1.2-2.3,2.5-2.3l76,0
	c4.5,0,8-3.8,7.6-8.4c-0.4-4-3.9-6.9-7.9-6.9l-88.6,0c-3.2,0-6.1-2.5-6.1-5.7c-0.1-3.5,2.7-5.9,6.1-5.9L525,7.8
	C528.5,7.8,531.2,10.7,531.2,14.2z"/>
<circle class="st1" cx="1293.7" cy="153.3" r="50"/>
<path id="cloud3" class="st0" d="M945,157L945,157c0,4.4,3.5,7.9,7.9,7.9h95.1c4.4,0,7.9-3.5,7.9-7.9v0c0-4.4-3.5-7.9-7.9-7.9h-35.6
	c-4.4,0-7.9-3.5-7.9-7.9v0c0-4.4,3.5-7.9,7.9-7.9h92c4.4,0,7.9,3.5,7.9,7.9v0c0,4.4-3.5,7.9-7.9,7.9h-25.3c-4.4,0-7.9,3.5-7.9,7.9v0
	c0,4.4,3.5,7.9,7.9,7.9h95.1c4.4,0,7.9-3.5,7.9-7.9v0c0-4.4-3.5-7.9-7.9-7.9h-33.9c-4.4,0-7.9-3.5-7.9-7.9v0c0-4.4,3.5-7.9,7.9-7.9
	h75.1c4.4,0,7.9-3.5,7.9-7.9v0c0-4.4-3.5-7.9-7.9-7.9h-156.7c-4.5,0-8.2-3.7-8.2-8.2v0c0-4.5,3.7-8.2,8.2-8.2h117
	c4.4,0,7.9-3.5,7.9-7.9v0c0-4.4-3.5-7.9-7.9-7.9H994.7c-4.4,0-8,3.6-8,8v0c0,4.4,3.6,8,8,8h6.6c4.4,0,8,3.6,8,8v0.2c0,4.4-3.6,8-8,8
	h-48.3c-4.4,0-7.9,3.5-7.9,7.9v0c0,4.4,3.5,7.9,7.9,7.9h12.4c4.4,0,7.9,3.5,7.9,7.9v0c0,4.4-3.5,7.9-7.9,7.9h-12.4
	C948.6,149.1,945,152.6,945,157z"/>
<path class="st2" d="M2.9,600.3L2.9,600.3c0-15.3,12.4-27.8,27.8-27.8h345c15.3,0,27.8,12.4,27.8,27.8v0c0,15.3-12.4,27.8-27.8,27.8
	h-345C15.4,628,2.9,615.6,2.9,600.3z M629.8,628H827c15.6,0,28.3,12.7,28.3,28.3v0c0,15.6-12.7,28.3-28.3,28.3H649.9
	c-15.3,0-27.7,12.4-27.7,27.7l0,0c0,14.8,12.1,26.9,26.9,26.9h826.5c15.1,0,27.4-12.3,27.4-27.4V711c0-15.1-12.3-27.4-27.4-27.4
	h-174.4c-15,0-27.2-12.2-27.2-27.2v0c0-15.6,12.8-28.3,28.3-28.3h65l0,0h24.7c15,0,27.1-12.2,27.1-27.1v-1.3
	c0-14.9-12.2-27.1-27.1-27.1H561.9c-15.3,0-27.8,12.5-27.8,27.8v0.8c0,14.9,12.1,27,27,27H629.8L629.8,628z M412.3,600.3
	L412.3,600.3c0-15.3,12.4-27.8,27.8-27.8h52.6c15.3,0,27.8,12.4,27.8,27.8v0c0,15.3-12.4,27.8-27.8,27.8H440
	C424.7,628,412.3,615.6,412.3,600.3z"/>
<g>
	<g>
		<line class="st3" x1="636.5" y1="711.1" x2="647" y2="711.1"/>
		<line class="st4" x1="667.6" y1="711.1" x2="1439.8" y2="711.1"/>
		<line class="st3" x1="1450.1" y1="711.1" x2="1460.6" y2="711.1"/>
	</g>
</g>
<g>
	<g>
		<line class="st3" x1="553.2" y1="599.3" x2="563.7" y2="599.3"/>
		<line class="st5" x1="585" y1="599.3" x2="1383.4" y2="599.3"/>
		<line class="st3" x1="1394.1" y1="599.3" x2="1404.6" y2="599.3"/>
	</g>
</g>
<g>
	<g>
		<line class="st3" x1="434.4" y1="599.3" x2="444.9" y2="599.3"/>
		<line class="st6" x1="460.4" y1="599.3" x2="483.6" y2="599.3"/>
		<line class="st3" x1="491.3" y1="599.3" x2="501.8" y2="599.3"/>
	</g>
</g>
<g>
	<g>
		<line class="st3" x1="25.1" y1="599.3" x2="35.6" y2="599.3"/>
		<line class="st7" x1="55.5" y1="599.3" x2="364.4" y2="599.3"/>
		<line class="st3" x1="374.4" y1="599.3" x2="384.9" y2="599.3"/>
	</g>
</g>
<g>
	<path class="st8" d="M419.4,510.6L419.4,510.6c-3.9,0-6.6-3.5-6.6-7.5v-31.2c0-4,2.6-7.1,6.6-7.1h0c4,0,7,3.1,7,7.1v-14.1
		c0-4,3.4-7.6,7.4-7.6h0c4,0,7.2,3.6,7.2,7.6v14.1c0-4,3.2-7.1,7.1-7.1h0c4,0,7.5,3.1,7.5,7.1v41.3c0,4-3.5,7.2-7.5,7.2h0.1
		c-4,0-7.2-3.2-7.2-7.2v-13.5V499c0,0.1-0.1,0-0.1,0.1c-0.2-3.8-3.4-7.1-7.2-7.1h0c-3.9,0-7.1,3.3-7.2,7.1c0-0.1,0,0,0-0.1v0.6v3.4
		C426.5,507,423.4,510.6,419.4,510.6z"/>
	<path class="st9" d="M451.3,534.9L451.3,534.9c-2.3-2.3-6.1-2.3-8.4,0l-3.8,3.6V501c0-3.2-2.6-5.8-5.8-5.8c-3.2,0-5.8,2.6-5.8,5.8
		v24.4l-5.8-6c-2.9-2.9-7.4-2.9-10.3,0l0,0c-2.9,2.9-3,7.5-0.2,10.4l16.2,16.4v22c0,3.2,2.6,5.8,5.8,5.8c3.2,0,5.8-2.6,5.8-5.8
		v-13.3l12-11.8C453.4,540.8,453.6,537.1,451.3,534.9z"/>
	<path class="st10" d="M450.9,497.2v-22.1c0-0.8-0.6-1.5-1.5-1.5s-1.5,0.7-1.5,1.5v22.1c0,0.8,0.6,1.5,1.5,1.5
		S450.9,498,450.9,497.2z M434.3,478.5v-22.1c0-0.8-1.1-1.5-1.9-1.5c-0.8,0-1.9,0.7-1.9,1.5v22.1c0,0.8,1.1,1.5,1.9,1.5
		C433.2,480,434.3,479.3,434.3,478.5z M422.6,505.5v-22.1c0-0.8-0.6-1.5-1.5-1.5c-0.8,0-1.5,0.7-1.5,1.5v22.1c0,0.8,0.6,1.5,1.5,1.5
		C421.9,507,422.6,506.3,422.6,505.5z"/>
	<path class="st11" d="M434.3,567.5v-22.1c0-0.8-0.6-1.5-1.5-1.5s-1.5,0.7-1.5,1.5v22.1c0,0.8,0.6,1.5,1.5,1.5
		S434.3,568.3,434.3,567.5z M437.2,522.8v-22.1c0-0.8-0.6-1.5-1.5-1.5s-1.5,0.7-1.5,1.5v22.1c0,0.8,0.6,1.5,1.5,1.5
		S437.2,523.6,437.2,522.8z M432.9,536.5l-15.7-15.7c-0.6-0.6-1.5-0.6-2.1,0c-0.6,0.6-0.6,1.5,0,2.1l15.7,15.7
		c0.6,0.6,1.5,0.6,2.1,0S433.5,537.1,432.9,536.5z M440.5,548.2l8.3-8.3c0.6-0.6,0.6-1.5,0-2.1c-0.6-0.6-1.5-0.6-2.1,0l-8.3,8.3
		c-0.6,0.6-0.6,1.5,0,2.1C439,548.8,439.9,548.8,440.5,548.2z"/>
</g>
<g>
	<path class="st8" d="M474.5,506.4v-31.5c0-4,3.3-7.3,7.3-7.3h0c4,0,7.3,3.1,7.3,7.1v-14.6c0-3.9,3.2-7,7-7h0c4.2,0,7.6,3.4,7.6,7.6
		v14.1c0-4,2.8-7.1,6.8-7.1h0c3.8,0,6.8,3.1,6.8,6.8v41.6c0,4-2.9,7.2-6.9,7.2h0.1c-4,0-6.8-3.2-6.8-7.2v-15.5c0-4-3.3-7.3-7.3-7.3
		h0c-4,0-7.3,3.3-7.3,7.3v5.8c0,4-3.3,7.3-7.3,7.3h0C477.8,513.7,474.5,510.5,474.5,506.4z"/>
	<path class="st9" d="M513.6,534.9L513.6,534.9c-2.2-2.3-5.9-2.3-8.1,0l-3.6,3.6V501c0-3.2-2.6-5.8-5.8-5.8c-3.2,0-5.8,2.6-5.8,5.8
		v24.4l-5.9-6c-2.8-2.9-7.4-2.9-10.3,0l0,0c-2.8,2.9-2.9,7.5,0,10.4l16.2,16.4v22c0,3.2,2.6,5.8,5.8,5.8c3.2,0,5.8-2.6,5.8-5.8
		v-13.3l11.7-11.8C515.9,540.8,515.9,537.1,513.6,534.9z"/>
	<path class="st10" d="M513.5,500.2V478c0-0.8-0.6-1.5-1.5-1.5c-0.8,0-1.5,0.7-1.5,1.5v22.1c0,0.8,0.6,1.5,1.5,1.5
		C512.8,501.6,513.5,501,513.5,500.2z M495.9,481.5v-22.1c0-0.8-0.6-1.5-1.5-1.5s-1.5,0.7-1.5,1.5v22.1c0,0.8,0.6,1.5,1.5,1.5
		S495.9,482.3,495.9,481.5z M485.2,508.4v-22.1c0-0.8-0.6-1.5-1.5-1.5s-1.5,0.7-1.5,1.5v22.1c0,0.8,0.6,1.5,1.5,1.5
		S485.2,509.3,485.2,508.4z"/>
	<path class="st11" d="M496.1,568.5v-22.1c0-0.8-0.6-1.5-1.4-1.5s-1.4,0.7-1.4,1.5v22.1c0,0.8,0.6,1.5,1.4,1.5
		S496.1,569.3,496.1,568.5z M499,523.8v-22.1c0-0.8-0.6-1.5-1.4-1.5s-1.4,0.7-1.4,1.5v22.1c0,0.8,0.6,1.5,1.4,1.5
		S499,524.6,499,523.8z M495.4,537.5l-15.5-15.7c-0.6-0.6-1.5-0.6-2.1,0c-0.6,0.6-0.6,1.5,0,2.1l15.5,15.7c0.6,0.6,1.5,0.6,2.1,0
		C496,539,496,538.1,495.4,537.5z M502.9,549.2l8.2-8.3c0.6-0.6,0.6-1.5,0-2.1c-0.6-0.6-1.5-0.6-2.1,0l-8.2,8.3
		c-0.6,0.6-0.6,1.5,0,2.1C501.4,549.8,502.3,549.8,502.9,549.2z"/>
</g>
<g>
	<path class="st12" d="M1354.3,241.8l5.6-18.9l-8.4,11.6v-33.2l-8-10v-4.8h-3v-7.4l-6-2.8v-5.8h-2V135c9-6.4-1-11.9-1-11.9l-0.6-3.3
		l-0.4-2.2l-0.4,2.2l-0.6,3.3c0,0-10,5.6-1,11.9v35.6h-2v5.8l-5,2.8v7.4h-3v4.8l-10,10v33.2l-8.8-11.6l7,18.9l-10.2-10l12,23.3
		v318.6h21.7h0.8h22.5V255.1l10.5-23.3L1354.3,241.8z"/>
	<polygon class="st13" points="1308.5,254.7 1308.5,573.5 1353.8,254.7 	"/>
	<path class="st14" d="M1341.8,186.7h-1.3v-7.4l-6-2.8v-5.8h-2V135c9-6.4-1-11.9-1-11.9l-0.6-3.3l-0.4-2.2l-0.4,2.2l-0.6,3.3
		c0,0-10,5.6-1,11.9v35.6h-2v5.8l-5,2.8v7.4h-3v4.8l-10,10V215L1341.8,186.7z"/>
	<path class="st15" d="M1353.8,466.6l-0.1-0.2l0.1-0.1V466.6z M1349.2,476.8l4.5-10.4l-4.5-8.2l-4.5,8.2L1349.2,476.8z
		 M1349.2,496.2l4.5-10.4l-4.5-8.2l-4.5,8.2L1349.2,496.2z M1349.2,457.5l4.5-10.4l-4.5-8.2l-4.5,8.2L1349.2,457.5z M1353.8,485.7
		l-0.1,0.1l0.1,0.2V485.7z M1349.2,438.1l4.5-10.4l-4.5-8.2l-4.5,8.2L1349.2,438.1z M1349.2,398.3l4.5-10.4l-4.5-8.2l-4.5,8.2
		L1349.2,398.3z M1353.8,407.3l-0.1,0.1l0.1,0.2V407.3z M1353.8,447l-0.1,0.1l0.1,0.2V447z M1353.8,427.6l-0.1,0.1l0.1,0.2V427.6z
		 M1353.8,504.9l-0.1,0.1l0.1,0.2V504.9z M1349.2,417.8l4.5-10.4l-4.5-8.2l-4.5,8.2L1349.2,417.8z M1317.4,524.5l4.5,10.4l4.5-10.4
		l-4.5-8.2L1317.4,524.5z M1340.1,516.3l-4.5,8.2l4.5,10.4l4.5-10.4L1340.1,516.3z M1326.5,524.5l4.5,10.4l4.5-10.4l-4.5-8.2
		L1326.5,524.5z M1308.4,543.7l4.5,10.4l4.5-10.4l-4.5-8.2L1308.4,543.7z M1317.4,543.7l4.5,10.4l4.5-10.4l-4.5-8.2L1317.4,543.7z
		 M1326.5,543.7l4.5,10.4l4.5-10.4l-4.5-8.2L1326.5,543.7z M1308.4,524.5l4.5,10.4l4.5-10.4l-4.5-8.2L1308.4,524.5z M1349.2,534.8
		l4.5-10.4l-4.5-8.2l-4.5,8.2L1349.2,534.8z M1353.8,524.4l-0.1,0.1l0.1,0.2V524.4z M1353.8,543.6l-0.1,0.1l0.1,0.2V543.6z
		 M1349.2,554.1l4.5-10.4l-4.5-8.2l-4.5,8.2L1349.2,554.1z M1349.2,515.4l4.5-10.4l-4.5-8.2l-4.5,8.2L1349.2,515.4z M1353.8,368.6
		l-0.1,0.1l0.1,0.2V368.6z M1353.8,387.9l-0.1,0.1l0.1,0.2V387.9z M1344.6,272l-4.5-8.2l-4.5,8.2l4.5,10.4L1344.6,272z M1335.5,272
		l-4.5-8.2l-4.5,8.2l4.5,10.4L1335.5,272z M1326.5,272l-4.5-8.2l-4.5,8.2l4.5,10.4L1326.5,272z M1312.9,282.4l4.5-10.4l-4.5-8.2
		l-4.5,8.2L1312.9,282.4z M1326.5,563.2l4.5,10.4h0l4.5-10.4l-4.5-8.2L1326.5,563.2z M1344.7,563.2l4.5,10.4h0l4.5-10.4l-4.5-8.2
		L1344.7,563.2z M1353.8,563l-0.1,0.1l0.1,0.2V563z M1308.4,563.2l4.5,10.4h0l4.5-10.4l-4.5-8.2L1308.4,563.2z M1353.8,291.3
		l-0.1,0.1l0.1,0.2V291.3z M1317.4,563.2l4.5,10.4h0l4.5-10.4l-4.5-8.2L1317.4,563.2z M1344.6,563.2l-4.5-8.2l-4.5,8.3l4.5,10.4h0
		L1344.6,563.2z M1349.2,359.7l4.5-10.4l-4.5-8.2l-4.5,8.2L1349.2,359.7z M1353.8,349.2l-0.1,0.1l0.1,0.2V349.2z M1335.5,543.7
		l4.5,10.4l4.5-10.4l-4.5-8.2L1335.5,543.7z M1349.2,340.5l4.5-10.4l-4.5-8.2l-4.5,8.2L1349.2,340.5z M1349.2,379.1l4.5-10.4
		l-4.5-8.2l-4.5,8.2L1349.2,379.1z M1349.2,321l4.5-10.4l-4.5-8.2l-4.5,8.2L1349.2,321z M1353.8,272l-4.5-8.2l-4.5,8.2l4.5,10.4
		L1353.8,272z M1353.8,330l-0.1,0.1l0.1,0.2V330z M1353.8,271.9l-0.1,0.1l0.1,0.2V271.9z M1349.2,301.8l4.5-10.4l-4.5-8.2l-4.5,8.2
		L1349.2,301.8z M1353.8,310.6l-0.1,0.1l0.1,0.2V310.6z M1308.4,388l4.5,10.4l4.5-10.4l-4.5-8.2L1308.4,388z M1308.4,349.3l4.5,10.4
		l4.5-10.4l-4.5-8.2L1308.4,349.3z M1317.4,388l4.5,10.4l4.5-10.4l-4.5-8.2L1317.4,388z M1308.4,330.1l4.5,10.4l4.5-10.4l-4.5-8.2
		L1308.4,330.1z M1326.5,349.3l4.5,10.4l4.5-10.4l-4.5-8.2L1326.5,349.3z M1340.1,360.6l-4.5,8.2l4.5,10.4l4.5-10.4L1340.1,360.6z
		 M1340.1,341.2l-4.5,8.2l4.5,10.4l4.5-10.4L1340.1,341.2z M1340.1,379.8l-4.5,8.2l4.5,10.4l4.5-10.4L1340.1,379.8z M1326.5,388
		l4.5,10.4l4.5-10.4l-4.5-8.2L1326.5,388z M1308.4,368.8l4.5,10.4l4.5-10.4l-4.5-8.2L1308.4,368.8z M1326.5,368.8l4.5,10.4l4.5-10.4
		l-4.5-8.2L1326.5,368.8z M1317.4,368.8l4.5,10.4l4.5-10.4l-4.5-8.2L1317.4,368.8z M1317.4,349.3l4.5,10.4l4.5-10.4l-4.5-8.2
		L1317.4,349.3z M1317.4,291.4l4.5,10.4l4.5-10.4l-4.5-8.2L1317.4,291.4z M1308.4,291.4l4.5,10.4l4.5-10.4l-4.5-8.2L1308.4,291.4z
		 M1326.5,291.4l4.5,10.4l4.5-10.4l-4.5-8.2L1326.5,291.4z M1317.4,330.1l4.5,10.4l4.5-10.4l-4.5-8.2L1317.4,330.1z M1340.1,283.3
		l-4.5,8.2l4.5,10.4l4.5-10.4L1340.1,283.3z M1340.1,302.5l-4.5,8.2l4.5,10.4l4.5-10.4L1340.1,302.5z M1326.5,330.1l4.5,10.4
		l4.5-10.4l-4.5-8.2L1326.5,330.1z M1308.4,505.1l4.5,10.4l4.5-10.4l-4.5-8.2L1308.4,505.1z M1340.1,321.9l-4.5,8.2l4.5,10.4
		l4.5-10.4L1340.1,321.9z M1308.4,310.7l4.5,10.4l4.5-10.4l-4.5-8.2L1308.4,310.7z M1317.4,310.7l4.5,10.4l4.5-10.4l-4.5-8.2
		L1317.4,310.7z M1326.5,310.7l4.5,10.4l4.5-10.4l-4.5-8.2L1326.5,310.7z M1308.4,466.4l4.5,10.4l4.5-10.4l-4.5-8.2L1308.4,466.4z
		 M1340.1,477.6l-4.5,8.2l4.5,10.4l4.5-10.4L1340.1,477.6z M1317.4,466.4l4.5,10.4l4.5-10.4l-4.5-8.2L1317.4,466.4z M1340.1,399.2
		l-4.5,8.2l4.5,10.4l4.5-10.4L1340.1,399.2z M1326.5,485.8l4.5,10.4l4.5-10.4l-4.5-8.2L1326.5,485.8z M1326.5,505.1l4.5,10.4
		l4.5-10.4l-4.5-8.2L1326.5,505.1z M1317.4,485.8l4.5,10.4l4.5-10.4l-4.5-8.2L1317.4,485.8z M1340.1,458.2l-4.5,8.2l4.5,10.4
		l4.5-10.4L1340.1,458.2z M1317.4,505.1l4.5,10.4l4.5-10.4l-4.5-8.2L1317.4,505.1z M1308.4,485.8l4.5,10.4l4.5-10.4l-4.5-8.2
		L1308.4,485.8z M1340.1,496.9l-4.5,8.2l4.5,10.4l4.5-10.4L1340.1,496.9z M1326.5,466.4l4.5,10.4l4.5-10.4l-4.5-8.2L1326.5,466.4z
		 M1308.4,407.4l4.5,10.4l4.5-10.4l-4.5-8.2L1308.4,407.4z M1308.4,447.2l4.5,10.4l4.5-10.4l-4.5-8.2L1308.4,447.2z M1326.5,407.4
		l4.5,10.4l4.5-10.4l-4.5-8.2L1326.5,407.4z M1317.4,407.4l4.5,10.4l4.5-10.4l-4.5-8.2L1317.4,407.4z M1326.5,427.8l4.5,10.4
		l4.5-10.4l-4.5-8.2L1326.5,427.8z M1340.1,419.6l-4.5,8.2l4.5,10.4l4.5-10.4L1340.1,419.6z M1317.4,447.2l4.5,10.4l4.5-10.4
		l-4.5-8.2L1317.4,447.2z M1326.5,447.2l4.5,10.4l4.5-10.4l-4.5-8.2L1326.5,447.2z M1317.4,427.8l4.5,10.4l4.5-10.4l-4.5-8.2
		L1317.4,427.8z M1340.1,439l-4.5,8.2l4.5,10.4l4.5-10.4L1340.1,439z M1308.4,427.8l4.5,10.4l4.5-10.4l-4.5-8.2L1308.4,427.8z"/>
	<rect x="1309" y="201.6" class="st16" width="42.9" height="33.2"/>
	<polygon class="st15" points="1308.5,200.7 1308.5,234.6 1351.9,200.7 	"/>
</g>
<g>
	<g>
		<polygon class="st17" points="1266,466.2 1400.4,573.6 1126.7,573.6 1262.9,466.1 		"/>
		<path class="st18" d="M1266.1,532.7h-34.6v-5h34.6c1.3,0,2.4,1.2,2.4,2.5C1268.5,531.5,1267.4,532.7,1266.1,532.7z M1249.5,545.7
			h25.2c1.3,0,2.4-0.7,2.4-2c0-1.3-1.1-2-2.4-2h-25.2V545.7z M1273.5,537.7h20.5c1.3,0,2.4-1.2,2.4-2.5s-1.1-2.5-2.4-2.5h-20.5
			c-1.3,0-2.4,1.2-2.4,2.5S1272.2,537.7,1273.5,537.7z"/>
	</g>
	<g>
		<polygon class="st19" points="1080.8,392.9 912,573.6 1287.8,573.6 1085.8,393 		"/>
		<path class="st17" d="M1107.7,545.7h-56.2v-8h56.2c2.1,0,3.8,1.9,3.8,4C1111.5,543.8,1109.8,545.7,1107.7,545.7z M1080.5,565.7h41
			c2.1,0,3.8-1.9,3.8-4c0-2.1-1.7-4-3.8-4h-41V565.7z M1119.5,552.7h32.7c2.1,0,3.8-1.4,3.8-3.5c0-2.1-1.7-3.5-3.8-3.5h-32.7
			c-2.1,0-3.8,1.4-3.8,3.5C1115.7,551.3,1117.4,552.7,1119.5,552.7z"/>
		<path class="st17" d="M1061.1,479.7h-59.6v-1.4l5.3-6.6h54.3c2.1,0,3.8,1.9,3.8,4C1064.9,477.8,1063.2,479.7,1061.1,479.7z
			 M1055.3,463.7c0,2.1,1.7,4,3.8,4h32.7c2.1,0,3.8-1.9,3.8-4s-1.7-4-3.8-4h-32.7C1057,459.7,1055.3,461.5,1055.3,463.7z
			 M1047.3,459.7c2.1,0,3.8-1.9,3.8-4c0-2.1-1.7-4-3.8-4h-21.4l-7.3,8H1047.3z"/>
	</g>
	<g>
		<polygon class="st1" points="902.4,394.8 1099.9,573.6 772.5,573.6 737.5,560.2 895.5,394.8 		"/>
		<polygon class="st19" points="901.5,393.7 896.6,393.7 887.3,402.5 737.5,559.4 771.4,572.2 		"/>
		<path class="st19" d="M798.7,537.7h-17.2v-8h17.2c2.1,0,3.8,1.9,3.8,4C802.6,535.8,800.9,537.7,798.7,537.7z M781.5,557.7h31
			c2.1,0,3.8-1.9,3.8-4c0-2.1-1.7-4-3.8-4h-31V557.7z M810.6,545.7h32.7c2.1,0,3.8-1.9,3.8-4c0-2.1-1.7-4-3.8-4h-32.7
			c-2.1,0-3.8,1.9-3.8,4C806.7,543.8,808.5,545.7,810.6,545.7z"/>
		<path class="st19" d="M854.3,476.7h-16.8v-7h16.8c2.1,0,3.8,1.4,3.8,3.5C858.1,475.3,856.4,476.7,854.3,476.7z M827.5,497.7h40.6
			c2.1,0,3.8-1.9,3.8-4c0-2.1-1.7-4-3.8-4h-40.6V497.7z M866.1,484.7h32.7c2.1,0,3.8-1.9,3.8-4c0-2.1-1.7-4-3.8-4h-32.7
			c-2.1,0-3.8,1.9-3.8,4C862.3,482.8,864,484.7,866.1,484.7z"/>
		<path class="st19" d="M978.1,526.7h69.9l8.6,8h-78.5c-2.1,0-3.8-1.9-3.8-4C974.3,528.5,976,526.7,978.1,526.7z M947.4,521.7h32.7
			c2.1,0,3.8-1.9,3.8-4s-1.7-4-3.8-4h-32.7c-2.1,0-3.8,1.9-3.8,4S945.3,521.7,947.4,521.7z M988.1,510.2c0,2.1,1.7,3.5,3.8,3.5h42.1
			l-8.6-7h-33.5C989.8,506.7,988.1,508,988.1,510.2z"/>
	</g>
</g>
<g>
	<path class="st20" d="M776.4,546.1v27.5H567.3v-40C567.3,533.6,681.9,451.6,776.4,546.1z"/>
	<path class="st21" d="M776.5,546.1v27.6h-209v-40C567.5,533.6,682.5,451.6,776.5,546.1z"/>
	<path class="st22" d="M724.6,510.8L724.6,510.8l-68.8-128.2l-41.6-2.6L602,391.5c0,0-3.4,5.3,0,7.4c0,0-11.9,12.5-3.9,47.8
		l-13.2,34.6c0,0-6.8-2.5-10.1,3.5h-7.2v49C567.5,533.6,630.5,496.7,724.6,510.8z"/>
	<path class="st23" d="M663.3,396.7l-7.5-14l-41.6-2.6L602,391.5c0,0-3.4,5.3,0,7.4c0,0-11.9,12.5-3.9,47.8l-13.2,34.6
		c0,0-6.8-2.5-10.1,3.5h-7.2v49c0,0,0.6-0.4,1.9-1.1L663.3,396.7z"/>
	<rect x="567.5" y="546.7" class="st24" width="209" height="27"/>
	<path class="st25" d="M671.4,306.8l-6.2,27.5l-17.9,9.3c0,0-19,0.5-30.9,8.6c0,0-9.9,13.8-10.6,22.8c0,0,0,1.6,2.1,0l51.7,4.2
		l9.9,48.4l36.9,85h10.4l-4.2-103h12.7l7.3-11.2l-5.7-48.1l9.6-3c0,0,4.2-0.9,1.8-6.6l-10.6-22.2c0,0-3.9-9-20-15.4
		c0,0-12.4-3.2-14-3.2S679.5,296.9,671.4,306.8z"/>
	<path class="st26" d="M607.8,375.1l51.7,4.2l7.9,39l65.5-88.5l-5.4-11.2c0,0-3.9-9-20-15.4c0,0-12.4-3.2-14-3.2
		c-1.7,0-14.1-3.1-22.1,6.8l-6.2,27.5l-17.9,9.3c0,0-19,0.5-30.9,8.6c0,0-9.9,13.8-10.6,22.8C605.7,375.1,605.7,376.6,607.8,375.1z"
		/>
	<path class="st24" d="M721.5,339.4l8.2,0.4l-7.7-22.5l-7.6-7.8l-3.1,1.9c0,0-3.9,0.3-1.6-2.6c0,0,1.2-1.9-17.5-4
		c0,0,1.1,1.3,1.8,3.8c-0.7-0.4-1.5-0.8-2.4-1l-0.7-0.1c0.6-0.7,0.9-1.6,0.9-2.6c0-0.7-0.2-1.3-0.5-1.8c2.5,0.3,7.5,1.6,11.8,2.6
		h5.5c0,0-13.2-4.9-18.2-4.4v0.1c-1-0.3-1.6-0.5-2.3-0.5c-1.4,0-2.9,0.7-3.6,1.8c-0.2-0.3-1.9,0-1.9,0c-10,3.6-6.7,4.8-6.7,4.8
		c3.9-3.2,6.8-3.7,7.9-3.8c-0.1,0.4-0.2,0.8-0.2,1.2c0,0.6,0.1,1.2,0.4,1.7c-0.7,0-5.5,0-6.9,4.7l-6.4,33.4l2.3-1.3l4-7.2l1.2-0.1
		l1.4-9.2l6.9,9.7l35,1V339.4z M690.6,322.7h-6.5c0,0-3.1-0.8-4.2-3.5l-0.4-3.1l-1.6,0.3c0,0,0.7-2.4,1.2-4.4
		c0.2-0.7,0.8-2.2,1.3-2.5c1-0.6,2.7-1.4,3.6-1.4l2.3,0.9c0,0-6.9-0.6-6.5,2.9c0,0,4.6,3.9,7.2-2.1h1.2c0,0,0.7,4.2,4.2,4.9
		c0,0,0.7,0.2,1.6,0.4c0,0.2-0.1,0.4-0.1,0.6C694,315.5,694.3,320.7,690.6,322.7z M638.2,347.7h1.3v1.1v13.7l-21.2,2.4
		c0,0-2.3-0.5-0.5-2.5c0,0,4.1-2.3,1.8-3.3c0,0-2.7-1-0.3-3.6C619.2,355.5,623,352.7,638.2,347.7z M738.1,340.8l-2.6-5.3l-3.7,4.7
		l-9.1,3.2l0.6,1.3l2.4,11.7c0,0-13.3-4.3-13.3,6.9v46.4h12.7l7.3-11.2l-5.7-48.1l9.6-3C736.3,347.4,740.5,346.5,738.1,340.8z
		 M703.7,349.2l-4.4,4.9l2.9,5.1L705,501l7.5,9.9l-3.5-168.6C709.1,342.2,699.6,343.1,703.7,349.2z M669.9,397.6l5.3,2.9l-3-33.8
		c-0.1-0.8-1.3-0.8-1.3,0L669.9,397.6z M678.7,445.7h6.2l-3.9-35.7c-0.1-1-1.6-0.9-1.6,0.1L678.7,445.7z M685.2,319
		c2.7,1.3,5.1,0.1,5.1,0.1c0.1-0.1,0.3,0,0.4,0.1c0.1,0.1,0,0.3-0.1,0.4c-0.1,0.1-2.6,1.4-5.6,0c-0.1-0.1-0.2-0.2-0.1-0.3
		c0-0.1,0.1-0.1,0.2-0.1C685.1,319,685.2,319,685.2,319z M684.5,318.6c0.9-0.5,2.6-1.3,3.1-1.1l0.5,0.2l0.6-0.2c0.8,0.2,2,0.7,2.3,1
		c0.1,0.1,0.3,0.1,0.4,0c0.1-0.1,0.1-0.3,0-0.4c-0.5-0.6-2.4-1.1-2.6-1.2l-0.1,0l-0.5,0.2l-0.3-0.1c-0.9-0.3-3.1,0.9-3.6,1.1
		c-0.1,0.1-0.2,0.2-0.1,0.4c0,0.1,0.1,0.1,0.2,0.1C684.4,318.6,684.5,318.6,684.5,318.6z M689.5,315.7v-2.1c0-0.6-1.2,1.5-1.2,1.5
		l-2.5,0.5H689.5z"/>
	<path class="st24" d="M691.5,507.8c5-17.1,9.6-40.7,9.6-40.7v0c0,0-17.9-9.9-73.6-1.3l-2.6-4.2l-10-13.2l-13.3-7.6l3.5-6.8
		l-9.6-13.5v0c0,0,0,0,0,0c0,0.8-0.1,1.6-0.1,2.5c0,0.1,0.1,0.1,0.1,0.2c0,0.8,0.1,1.7,0.1,2.6c0,0,0,0,0,0c0,0-0.1,0.1-0.1,0.1
		c0,1.9,0.1,3.9,0.3,6c0,0.1,0,0.3,0,0.4c0.1,0.9,0.2,1.7,0.3,2.6c0,0.3,0.1,0.5,0.1,0.8c0,0.1,0,0.1,0,0.2c0.1,0.8,0.2,1.5,0.3,2.3
		c0.1,0.4,0.1,0.7,0.2,1.1c0.1,0.8,0.3,1.6,0.4,2.4c0.1,0.3,0.1,0.6,0.2,0.9c0,0.1,0,0.1,0,0.2c0.2,1.2,0.5,2.4,0.8,3.6l-1.5,3.9
		l0.9,2.4V464l4.9,25.6c0,0-23.7,5.4-21.3,18.2l3.8,17.7c0,0,0,0,0,0c0.6-0.3,1.3-0.5,2-0.8c0.2-0.1,0.4-0.1,0.5-0.2
		c0.6-0.2,1.1-0.4,1.7-0.6c0.2-0.1,0.3-0.1,0.5-0.2C610.9,515.8,646.4,506.3,691.5,507.8z"/>
	<path class="st24" d="M674.5,429.6c-4.6-7.4,0-10.7,0-10.7c1-9.2-24.1-56.9-24.1-56.9c-17.8-11.2-40.2,6.6-40.2,6.6
		c-15.8,25.1-12.3,41.1-12.3,41.1h8.5c10.4,3,13.4,16.7,13.4,16.7c2.3,8,10.3,8.5,10.3,8.5l10.6,1.1l-22-54.7l29.3-6.3l4.6,15.1
		c-3.7-0.4-8.9-0.7-8.9-0.7c-6.6,0.4-13,5.4-13,5.4c-3.1-0.8-4.7-2.4-5.6-3.7l0.4-4.8l-4.2-1.3l5.2,13c1.7,1.2,3.4,2.2,3.4,2.2
		c9.2,3.9,13.6,15.6,13.6,15.6c2.2,6.4,11.1,6.2,12.9,6.1c0,1.4,0.3,2.6,0.3,2.6l6.3,15.3l11.6,1.4
		C681.6,441.4,674.5,429.6,674.5,429.6z"/>
	<path class="st27" d="M674.5,427c-4.6-7.4,0-10.7,0-10.7c0.7-6.5-11.5-32.1-18.9-46.7c0.6,0.5,1.9,1,1.9,1.6v-5.4l-7-6.1
		c-0.1-0.2-0.2-0.4-0.2-0.4c-0.4-0.2-0.8-0.5-1.2-0.7c-0.8-0.5-2-1.1-3.5-1.6c-9.3-3.3-19.3-0.1-26.3,3.3c-0.4,0.2-0.8,0.4-1.3,0.6
		c-4.8,2.5-8,5.2-8,5.2c-15.8,25.1-12.3,41.4-12.3,41.4h8.5c10.4,3,13.4,16.4,13.4,16.4c2.3,8,10.3,8.4,10.3,8.4l10.6,1l-22-54.7
		l0.6-0.1l2.4,1.6l2.2-2.6l24-5.2l12.8,41.7c-6.1,0.8-4.1,7.8-4.1,7.8l6.3,15.3l11.6,1.4C681.6,438.8,674.5,427,674.5,427z"/>
	<path class="st24" d="M619.1,360.5c-2.1,1-4.6,2.7-5.9,5.4l2,10.2l6.3,4.1l7.9-9.1c0,0,1.6-1.9,3.3-3.2
		C631.6,365.2,627.9,359.3,619.1,360.5z"/>
	<path class="st25" d="M657.4,378.5c-0.3-1.2-0.1-5.4,0-7.3c-10.4-9.8-23.1-4.2-23.1-4.2c-2.1,0.8-4.8,4.1-4.8,4.1l-7.7,8.9
		l-3.6-2.3c-6.9,4-3.4,8.8-3.4,8.8c3.3,5,8,2.4,10,0.9c0,0.2,0,0.3,0,0.3c-1.3,9.5,7.4,6.9,7.4,6.9l6.9-3.9
		c6.4-2.3,17.2,1.3,17.2,1.3C657.9,388.7,657.4,378.5,657.4,378.5z"/>
	<path class="st22" d="M657.4,482.8c0,0-17.3-25.2-33.4-15.3c0,0-20.6,10.1-2.1,35.6l16.3,23.1c0,0,6.3,6.8,9.3,14.3v5.5l48-0.4
		v-8.2c0,0,0.8-5.5-4.4-10.4L657.4,482.8z"/>
	<path class="st27" d="M691,527l-33.6-44.1c0,0-16.9-24.6-32.8-15.6c0.1,0.3,0.2,0.7,0.4,1l39.4,60.2l31.2,4.6
		C694.6,531.2,693.2,529,691,527z"/>
	<path class="st24" d="M661.7,546.4l-46.9-67.5c-1.6,5.7-0.7,13.6,7.1,24.3l16.3,23.1c0,0,6.3,6.8,9.3,14.3v5.5L661.7,546.4z"/>
	<g>
		<path class="st22" d="M647.3,546.7c0,0-1.7-0.8-1.2-8.7c0,0,5.2-10.7,6.9-11.8c1.7-1.2,3.8-2.1,7.6-0.9c0,0,5.7-4.9,9.9-0.4
			c0,0,5.5-4,10,0c0,0,5-2.3,6.9,1.4c0,0,7.4-0.4,9,9.9l-0.2,10.5H647.3z"/>
		<path class="st21" d="M681.3,546.7c0,0-2.3-11.9,2.5-11.4c0,0,4.8,0.4,0.9,11.4H681.3z M671.3,546.7c3.9-11-0.9-11.4-0.9-11.4
			c-4.8-0.5-2.5,11.4-2.5,11.4H671.3z M659.1,546.7c3.5-10-0.8-10.1-0.8-10.1c-4.3-0.5-2.2,10.1-2.2,10.1H659.1z M693.4,546.7
			c2.8-7-0.6-8.1-0.6-8.1c-3.4-0.4-1.8,8.1-1.8,8.1H693.4z"/>
		<path class="st21" d="M675.5,546.7h-1v-13h1V546.7z M688.5,546.7h-1v-13h1V546.7z M662.5,533.7h-1v13h1V533.7z"/>
		<path class="st25" d="M673.5,526.7v6.9h-8.3C665.2,533.7,665.5,527,673.5,526.7z M661.5,533.7v-6c-6,0.2-7.2,6-7.2,6H661.5z
			 M685.5,533.7v-6.8c-7,0.2-7.9,6.8-7.9,6.8H685.5z"/>
	</g>
	<path class="st22" d="M718.8,482.8c0,0-17.3-25.2-33.4-15.3c0,0-20.6,10.1-2.1,35.6l16.1,23.1c0,0,6.1,6.8,9.1,14.3v5.2h49v-8.3
		c0,0,0-5.5-5.2-10.4L718.8,482.8z"/>
	<path class="st27" d="M752.4,527l-33.6-44.1c0,0-16.9-24.6-32.8-15.6c0.1,0.3,0.2,0.7,0.4,1l39.4,60.2L757,533
		C756,531.2,754.6,529,752.4,527z"/>
	<path class="st24" d="M722.9,546.4l-46.8-67.5c-1.6,5.7-0.6,13.6,7.1,24.3l16.1,23.1c0,0,6.2,6.8,9.2,14.3v5.5L722.9,546.4z"/>
	<g>
		<path class="st22" d="M708.7,546.7c0,0-1.7-0.8-1.2-8.7c0,0,5.2-10.7,6.9-11.8c1.7-1.2,3.8-2.1,7.6-0.9c0,0,5.7-4.9,9.9-0.4
			c0,0,5.5-4,10,0c0,0,5-2.3,6.9,1.4c0,0,7.4-0.4,9,9.9l-0.2,10.5H708.7z"/>
		<path class="st21" d="M742.7,546.7c0,0-2.3-11.9,2.5-11.4c0,0,4.8,0.4,0.9,11.4H742.7z M732.7,546.7c3.9-11-0.9-11.4-0.9-11.4
			c-4.8-0.5-2.5,11.4-2.5,11.4H732.7z M720.5,546.7c3.5-10-0.8-10.1-0.8-10.1c-4.3-0.5-2.2,10.1-2.2,10.1H720.5z M754.8,546.7
			c2.8-7-0.6-8.1-0.6-8.1c-3.4-0.4-1.8,8.1-1.8,8.1H754.8z"/>
		<path class="st21" d="M736.5,546.7h-1v-13h1V546.7z M749.5,546.7h-1v-13h1V546.7z M724.5,533.7h-1v13h1V533.7z"/>
		<path class="st25" d="M734.5,526.7v6.9h-7.9C726.6,533.7,727.5,527,734.5,526.7z M723.5,533.7v-6c-7,0.2-7.8,6-7.8,6H723.5z
			 M746.5,533.7v-6.8c-7,0.2-7.5,6.8-7.5,6.8H746.5z"/>
	</g>
	<path class="st24" d="M650.9,373.5c0,0-3.8-4.1,0-4.3c0,0,7.4-0.4,6.4,9.2C657.3,378.3,652.5,376,650.9,373.5z M640.7,373.4
		c0,0,5.9-1.6,2.6-4c0,0-4.9-5.7-9.7,3.8C633.6,373.2,637.8,374.8,640.7,373.4z M643.5,379.7h8.9l-0.3-2.8c-0.3-2.4-4.1-1-4.1-1
		l-4.4,2.4V379.7z M654,385.3c-0.8-5-4.3-4.4-4.3-4.4c-2.7-1.3-6.9,2.5-6.9,2.5 M652.9,386.4l-0.1-0.5c0,0-3.1,0.5-7.5-0.8l-0.1,0.5
		c3.7,1.1,6.3,1,7.3,0.9C652.7,386.4,652.8,386.4,652.9,386.4z"/>
</g>
<g>
	<g>
		<path class="st22" d="M210.5,368.6V367c2-1.1,2.9-3.1,2.9-5.4c0-2.6-1.6-4.9-3.9-5.9l-0.4-5.9c1.5-0.8,2.5-2.3,2.5-4.1
			c0-2-1.3-3.7-3.1-4.4l-0.5-7.3c1.4-0.5,2.4-1.8,2.4-3.4c0-1.7-1.3-3.2-2.9-3.5l-0.7-9.4l-0.7,9.4c-1.7,0.3-2.9,1.8-2.9,3.5
			c0,1.6,1,2.9,2.4,3.4l-0.5,7.3c-1.8,0.7-3.1,2.4-3.1,4.4c0,1.8,1,3.3,2.5,4.1l-0.4,5.9c-2.2,1-4.3,3.2-4.3,5.9
			c0,2.3,0.6,4.3,2.6,5.4v1.6c-29,1.3-52,22-54,39.8v28.3h116v-28.3C264.5,390.7,239.5,370.3,210.5,368.6z"/>
		<path class="st27" d="M216.6,369.2c-3.4-0.5-6.6-0.8-10.2-0.8c-31,0-55.9,21.3-57.9,39.8v28.5h20v-28.5
			C168.5,391.9,190.5,373.3,216.6,369.2z"/>
		<rect x="148.5" y="408.7" class="st28" width="116" height="28"/>
		<path class="st29" d="M259.5,431.7h-13v-19h13V431.7z M240.5,412.7h-12v19h12V412.7z M219.5,412.7h-10v19h10V412.7z M201.5,412.7
			h-11v19h11V412.7z M183.5,412.7h-13v19h13V412.7z M162.5,412.7h-10v19h10V412.7z"/>
		<path class="st30" d="M209.5,419.4v-6.7h10v4.9L209.5,419.4z M257.3,412.7h-10.8v0.6L257.3,412.7z M240.5,414.5v-1.8h-12v3.7
			L240.5,414.5z M162.5,426.7v-14h-10v15.9L162.5,426.7z M183.5,423.7v-11h-13v12.8L183.5,423.7z M201.5,420.6v-7.9h-11v9.8
			L201.5,420.6z"/>
	</g>
	<path class="st24" d="M279.5,408.7v5h-4v25h-4.9h-6.1v-25h-4v-5h3.8c0,0,1.2-12.3,6.3-13.9c5.1,1.6,6.9,13.9,6.9,13.9H279.5z
		 M148.8,408.7c0,0-1.8-12.3-6.9-13.9c-5.1,1.6-6.3,13.9-6.3,13.9h-3.1v5h4v25h5.4h6.6v-25h4v-5H148.8z"/>
	<path class="st21" d="M264.5,438.3v-24.7h-4v-5h3.8c0,0,1.3-12.6,6.4-14.2L264.5,438.3z M142.3,394.5c-5.1,1.6-6.7,14.2-6.7,14.2
		h-3.1v5h4v24.7L142.3,394.5z"/>
	<path class="st24" d="M312.5,409.7v4h-2v42H306h-3.5v-42h-2v-4h1.4c0,0,0.8-8.2,4.1-9.2c3.3,1.1,4.6,9.2,4.6,9.2H312.5z"/>
	<path class="st21" d="M302.5,455.1v-41.5h-2v-4h1.4c0,0,1.1-8.4,4.4-9.4L302.5,455.1z"/>
	<path class="st24" d="M114.5,409.7v4h-2v42h-4.3h-3.7v-42h-2v-4h1.5c0,0,0.8-8.2,4.1-9.2c3.3,1.1,4.6,9.2,4.6,9.2H114.5z"/>
	<path class="st21" d="M104.5,455.1v-41.5h-2v-4h1.5c0,0,1-8.4,4.4-9.4L104.5,455.1z"/>
	<rect x="71.5" y="455.7" class="st22" width="272" height="117"/>
	<polygon class="st31" points="71.5,455.7 71.5,572.6 343.3,455.7 	"/>
	<path class="st24" d="M326.8,524.2c0-1.3,1-2.5,2.3-2.5h9.4v5h-9.4C327.8,526.7,326.8,525.4,326.8,524.2z M338.5,535.7h-17.7
		c-1.3,0-2.3,0.2-2.3,1.5c0,1.3,1,1.5,2.3,1.5h17.7V535.7z M324.3,529.2c0-1.3-1-2.5-2.3-2.5h-19.7c-1.3,0-2.3,1.2-2.3,2.5
		s1,2.5,2.3,2.5h19.7C323.2,531.7,324.3,530.4,324.3,529.2z"/>
	<path class="st24" d="M86.2,552.7H75.5v-4h10.7c1.5,0,2.8,0.5,2.8,2C89,552.2,87.8,552.7,86.2,552.7z M75.5,567.7h20.7
		c1.5,0,2.8-0.5,2.8-2c0-1.5-1.2-2-2.8-2H75.5V567.7z M94.8,558.7h23.6c1.5,0,2.8-1.5,2.8-3s-1.2-3-2.8-3H94.8c-1.5,0-2.8,1.5-2.8,3
		S93.3,558.7,94.8,558.7z"/>
	<path class="st24" d="M86.7,507.7c0,1.3-1,2-2.3,2h-8.9v-4h8.9C85.7,505.7,86.7,506.4,86.7,507.7z M75.5,498.7h17.2
		c1.3,0,2.3-1.2,2.3-2.5c0-1.3-1-2.5-2.3-2.5H75.5V498.7z M89.2,504.2c0,1.3,1,1.5,2.3,1.5h19.7c1.3,0,2.3-0.2,2.3-1.5
		c0-1.3-1-1.5-2.3-1.5H91.6C90.3,502.7,89.2,502.9,89.2,504.2z"/>
	<path class="st24" d="M331.6,475.7h11.9v6h-11.9c-1.5,0-2.8-1.5-2.8-3C328.8,477.1,330,475.7,331.6,475.7z M343.5,461.7h-21.9
		c-1.5,0-2.8,1.5-2.8,3c0,1.5,1.2,3,2.8,3h21.9V461.7z M323,471.7h-23.6c-1.5,0-2.8,0.5-2.8,2c0,1.5,1.2,2,2.8,2H323
		c1.5,0,2.8-0.5,2.8-2C325.8,472.1,324.5,471.7,323,471.7z"/>
	<path class="st24" d="M245.5,500.7v4h-1v12h-3.2h-3.8v-12h-2v-4h2.4c0,0,0.7-6.7,3.4-7.6c2.7,0.9,3.7,7.6,3.7,7.6H245.5z
		 M175,500.7c0,0-1-6.7-3.7-7.6c-2.7,0.9-3.4,7.6-3.4,7.6h-1.4v4h2v12h2.8h3.2v-12h2v-4H175z"/>
	<path class="st21" d="M237.5,516.4v-11.7h-2v-4h2.4c0,0,0.5-7,3.2-7.9L237.5,516.4z M171.6,492.7c-2.7,0.9-3.7,7.9-3.7,7.9h-1.4v4
		h2v11.7L171.6,492.7z"/>
	<g>
		<path class="st27" d="M232.5,495.8c0-8.3-12-18-26-18c-14,0-25,9.6-26,18l0,0v11.9h52V495.8L232.5,495.8z"/>
		<path class="st32" d="M211.1,478.2c-1.6-0.2-2.9-0.4-4.5-0.4c-14,0-25.1,9.6-26.1,18v11.9h9v-11.9
			C190.5,488.4,199.3,480,211.1,478.2z"/>
		<rect x="180.5" y="495.7" class="st28" width="52" height="12"/>
		<path class="st29" d="M229.5,506.7h-4v-9h4V506.7z M221.5,497.7h-6v9h6V497.7z M213.5,497.7h-6v9h6V497.7z M203.5,497.7h-5v9h5
			V497.7z M196.5,497.7h-6v9h6V497.7z M186.5,497.7h-4v9h4V497.7z"/>
		<path class="st30" d="M207.5,500.9v-3.2h6v2.4L207.5,500.9z M229.3,497.7h-3.8v0.4L229.3,497.7z M221.5,498.6v-1h-6v1.8
			L221.5,498.6z M186.5,504.2v-6.5h-4v7.3L186.5,504.2z M196.5,502.8v-5.1h-6v5.9L196.5,502.8z M203.5,501.4v-3.7h-5v4.6
			L203.5,501.4z"/>
	</g>
	<g>
		<path class="st27" d="M302.5,442.2c0-8.3-13-18-27-18c-14,0-26,9.6-27,18l0,0v13.4h54V442.2L302.5,442.2z"/>
		<path class="st32" d="M280.7,424.6c-1.6-0.2-3.7-0.4-5.3-0.4c-14,0-25.9,9.6-26.9,18v13.4h11v-13.4
			C259.5,434.9,268.9,426.5,280.7,424.6z"/>
		<rect x="248.5" y="442.7" class="st28" width="54" height="13"/>
		<path class="st29" d="M299.5,453.7h-6v-10h6V453.7z M290.5,443.7h-5v10h5V443.7z M281.5,443.7h-6v10h6V443.7z M273.5,443.7h-5v10
			h5V443.7z M264.5,443.7h-4v10h4V443.7z M256.5,443.7h-6v10h6V443.7z"/>
		<path class="st30" d="M275.5,447.3v-3.6h6v2.8L275.5,447.3z M298.5,443.7h-5v0.9L298.5,443.7z M290.5,445.1v-1.4h-5v2.2
			L290.5,445.1z M256.5,450.6v-6.9h-6v7.8L256.5,450.6z M264.5,449.2v-5.5h-4v6.4L264.5,449.2z M273.5,447.8v-4.2h-5v5L273.5,447.8z
			"/>
	</g>
	<g>
		<path class="st27" d="M248.5,435.1c0-13.2-19.4-28.4-41.5-28.4c-22.1,0-39.5,15.2-41.5,28.4l0,0v20.6h83V435.1L248.5,435.1z"/>
		<path class="st32" d="M215.2,407.3c-2.5-0.4-5.2-0.6-7.8-0.6c-22.1,0-39.9,15.2-41.9,28.4v20.6h16v-20.6
			C182.5,423.4,196.6,410.2,215.2,407.3z"/>
		<rect x="165.5" y="434.7" class="st29" width="83" height="21"/>
		<path class="st30" d="M244.5,452.7h-9v-15h9V452.7z M230.5,437.7h-7v15h7V437.7z M216.5,437.7h-7v15h7V437.7z M203.5,437.7h-7v15
			h7V437.7z M190.5,437.7h-8v15h8V437.7z M176.5,437.7h-8v15h8V437.7z"/>
		<path class="st33" d="M209.5,443.1v-5.4h7v4.1L209.5,443.1z M243.5,437.7h-8v1L243.5,437.7z M230.5,439.6v-1.9h-7v3.2L230.5,439.6
			z M176.5,448.3v-10.6h-8v11.9L176.5,448.3z M190.5,446.1v-8.4h-8v9.8L190.5,446.1z M203.5,443.9v-6.3h-7v7.6L203.5,443.9z"/>
	</g>
	<g>
		<path class="st27" d="M165.5,442.2c0-8.3-12.5-18-26.5-18c-14,0-25.5,9.6-26.5,18l0,0v13.4h53V442.2L165.5,442.2z"/>
		<path class="st32" d="M143.9,424.6c-1.6-0.2-3.3-0.4-4.9-0.4c-14,0-25.5,9.6-26.5,18v13.4h10v-13.4
			C122.5,434.9,132.1,426.5,143.9,424.6z"/>
		<rect x="112.5" y="442.7" class="st28" width="53" height="13"/>
		<path class="st29" d="M162.5,453.7h-5v-10h5V453.7z M153.5,443.7h-4v10h4V443.7z M145.5,443.7h-6v10h6V443.7z M137.5,443.7h-6v10
			h6V443.7z M127.5,443.7h-5v10h5V443.7z M120.5,443.7h-6v10h6V443.7z"/>
		<path class="st30" d="M139.5,447.3v-3.6h6v2.8L139.5,447.3z M161.9,443.7h-4.4v0.9L161.9,443.7z M153.5,445.1v-1.4h-4v2.2
			L153.5,445.1z M120.5,450.6v-6.9h-6v7.8L120.5,450.6z M127.5,449.2v-5.5h-5v6.4L127.5,449.2z M137.5,447.8v-4.2h-6v5L137.5,447.8z
			"/>
	</g>
	<rect x="164.5" y="507.7" class="st27" width="85" height="65"/>
	<path class="st24" d="M207.5,516.6c-17.1,1-26,11.5-26,11.5v44.6h25.9h26.1v-44.6C233.5,528.1,224.6,517.6,207.5,516.6z"/>
	<path class="st21" d="M233.5,538v-9.9c0,0-8.9-10.5-26-11.5c-17.1,1-26,11.5-26,11.5V564L233.5,538z"/>
	<g>
		<polygon class="st27" points="374.5,370.2 374.5,364.7 368.5,364.7 359,299.7 356.9,299.7 354.8,299.7 345.3,364.7 338.5,364.7 
			338.5,370.2 343.5,373.6 343.5,398.7 338.5,398.7 338.5,404.3 343.5,410.2 343.5,481.6 338.5,479.1 338.5,492.1 338.5,572.7 
			356.9,572.7 374.5,572.7 374.5,492.1 374.5,479.1 370.5,481.6 370.5,410.2 374.5,404.3 374.5,398.7 370.5,398.7 370.5,373.6 		"/>
		<polygon class="st31" points="343.5,457.8 370.5,444.7 370.5,410.2 374.5,404.3 374.5,398.7 370.5,398.7 370.5,373.6 374.5,370.2 
			374.5,364.7 368.5,364.7 359,299.7 356.9,299.7 354.8,299.7 345.3,364.7 338.5,364.7 338.5,370.2 343.5,373.6 343.5,398.7 
			338.5,398.7 338.5,404.3 343.5,410.2 		"/>
		<rect x="338.9" y="399.7" class="st32" width="35.4" height="4.6"/>
		<rect x="338.9" y="364.3" class="st32" width="35.4" height="5.4"/>
		<rect x="343.5" y="373.7" class="st24" width="27" height="25"/>
		<path class="st31" d="M366,554.2c1.9,0,2.5,1.5,2.5,3.4v15.1h-5v-15.1C363.5,555.7,364.1,554.2,366,554.2z M351.5,572.7v-27.3
			c0-1.9-1.1-3.4-3-3.4c-1.9,0-3,1.5-3,3.4v27.3H351.5z M359.5,550.5c1.9,0,4-1.5,4-3.4v-29c0-1.9-2.1-3.4-4-3.4s-4,1.5-4,3.4v29
			C355.5,549,357.6,550.5,359.5,550.5z"/>
	</g>
	<g>
		<polygon class="st27" points="75.5,370.2 75.5,364.7 68.6,364.7 59.2,299.7 57.1,299.7 54.9,299.7 45.5,364.7 39.5,364.7 
			39.5,370.2 43.5,373.6 43.5,398.7 39.5,398.7 39.5,404.3 43.5,410.2 43.5,481.6 39.5,479.1 39.5,492.1 39.5,572.7 57.1,572.7 
			75.5,572.7 75.5,492.1 75.5,479.1 71.5,481.6 71.5,410.2 75.5,404.3 75.5,398.7 71.5,398.7 71.5,373.6 		"/>
		<polygon class="st31" points="43.5,457.8 71.5,444.7 71.5,410.2 75.5,404.3 75.5,398.7 71.5,398.7 71.5,373.6 75.5,370.2 
			75.5,364.7 68.6,364.7 59.2,299.7 57.1,299.7 54.9,299.7 45.5,364.7 39.5,364.7 39.5,370.2 43.5,373.6 43.5,398.7 39.5,398.7 
			39.5,404.3 43.5,410.2 		"/>
		<rect x="39.1" y="399.7" class="st32" width="35.4" height="4.6"/>
		<rect x="39.1" y="364.3" class="st32" width="35.4" height="5.4"/>
		<rect x="43.5" y="373.7" class="st24" width="28" height="25"/>
		<path class="st31" d="M66,554.2c1.9,0,3.5,1.5,3.5,3.4v15.1h-7v-15.1C62.5,555.7,64.1,554.2,66,554.2z M50.5,572.7v-27.3
			c0-1.9-0.6-3.4-2.5-3.4c-1.9,0-2.5,1.5-2.5,3.4v27.3H50.5z M59.5,550.5c1.9,0,3-1.5,3-3.4v-29c0-1.9-1.1-3.4-3-3.4s-3,1.5-3,3.4
			v29C56.5,549,57.6,550.5,59.5,550.5z"/>
	</g>
	<path class="st31" d="M246.7,556.2c0-0.3,0.3-0.5,0.6-0.5h2.2v1h-2.2C246.9,556.7,246.7,556.5,246.7,556.2z M249.5,559.7h-4.4
		c-0.3,0-0.6,0.2-0.6,0.5c0,0.3,0.3,0.5,0.6,0.5h4.4V559.7z M246,557.7c0-0.3-0.3-1-0.6-1h-5.3c-0.3,0-0.6,0.7-0.6,1
		c0,0.3,0.3,1,0.6,1h5.3C245.7,558.7,246,558,246,557.7z"/>
	<path class="st31" d="M166.9,514.7h-2.4v-1h2.4c0.3,0,0.6,0.2,0.6,0.5C167.5,514.5,167.3,514.7,166.9,514.7z M164.5,518.7h4.7
		c0.3,0,0.6-0.2,0.6-0.5c0-0.3-0.3-0.5-0.6-0.5h-4.7V518.7z M168.8,516.7h5.3c0.3,0,0.6-0.7,0.6-1c0-0.3-0.3-1-0.6-1h-5.3
		c-0.3,0-0.6,0.7-0.6,1C168.2,516,168.5,516.7,168.8,516.7z"/>
</g>
</svg>
