<?xml version="1.0" encoding="UTF-8" standalone="no"?>
<svg width="250px" height="78px" viewBox="0 0 250 78" version="1.1" xmlns="http://www.w3.org/2000/svg" xmlns:xlink="http://www.w3.org/1999/xlink">
    <!-- Generator: Sketch 39.1 (31720) - http://www.bohemiancoding.com/sketch -->
    <title>airbnb</title>
    <desc>Created with Sketch.</desc>
    <defs></defs>
    <g id="Page-1" stroke="none" stroke-width="1" fill="none" fill-rule="evenodd">
        <g id="Artboard-4" transform="translate(-115.000000, -2815.000000)" fill="#BBBBBB">
            <g id="section4" transform="translate(0.000000, 2600.000000)">
                <g id="airbnb" transform="translate(115.000000, 215.000000)">
                    <path d="M131.607482,19.5433502 C131.607482,22.3463805 129.345113,24.6043771 126.536654,24.6043771 C123.728196,24.6043771 121.465826,22.3463805 121.465826,19.5433502 C121.465826,16.7403199 123.650183,14.4823232 126.536654,14.4823232 C129.423125,14.5601852 131.607482,16.8181818 131.607482,19.5433502 L131.607482,19.5433502 Z M110.700069,29.743266 L110.700069,30.9890572 C110.700069,30.9890572 108.281674,27.8745791 103.132834,27.8745791 C94.6294461,27.8745791 87.9983637,34.3371212 87.9983637,43.2912458 C87.9983637,52.1675084 94.5514333,58.7079125 103.132834,58.7079125 C108.359687,58.7079125 110.700069,55.5155724 110.700069,55.5155724 L110.700069,56.8392256 C110.700069,57.4621212 111.168146,57.9292929 111.792248,57.9292929 L118.111279,57.9292929 L118.111279,28.6531987 L111.792248,28.6531987 C111.168146,28.6531987 110.700069,29.1982323 110.700069,29.743266 L110.700069,29.743266 Z M110.700069,48.5079966 C109.529878,50.2209596 107.189496,51.7003367 104.381038,51.7003367 C99.3882228,51.7003367 95.5655989,48.5858586 95.5655989,43.2912458 C95.5655989,37.996633 99.3882228,34.8821549 104.381038,34.8821549 C107.111483,34.8821549 109.607891,36.4393939 110.700069,38.0744949 L110.700069,48.5079966 Z M122.792043,28.6531987 L130.281265,28.6531987 L130.281265,57.9292929 L122.792043,57.9292929 L122.792043,28.6531987 Z M234.662303,27.8745791 C229.513463,27.8745791 227.095068,30.9890572 227.095068,30.9890572 L227.095068,14.5601852 L219.605846,14.5601852 L219.605846,57.9292929 L225.924877,57.9292929 C226.548979,57.9292929 227.017055,57.3842593 227.017055,56.8392256 L227.017055,55.5155724 C227.017055,55.5155724 229.43545,58.7079125 234.58429,58.7079125 C243.087678,58.7079125 249.718761,52.1675084 249.718761,43.2912458 C249.718761,34.4149832 243.087678,27.8745791 234.662303,27.8745791 L234.662303,27.8745791 Z M233.414099,51.6224747 C230.527628,51.6224747 228.265259,50.1430976 227.095068,48.4301347 L227.095068,37.996633 C228.265259,36.4393939 230.761667,34.8042929 233.414099,34.8042929 C238.406914,34.8042929 242.229538,37.918771 242.229538,43.2133838 C242.229538,48.5079966 238.406914,51.6224747 233.414099,51.6224747 L233.414099,51.6224747 Z M215.705209,40.5660774 L215.705209,58.0071549 L208.215986,58.0071549 L208.215986,41.4225589 C208.215986,36.5951178 206.655732,34.648569 202.443044,34.648569 C200.180675,34.648569 197.840293,35.8164983 196.358051,37.5294613 L196.358051,57.9292929 L188.868828,57.9292929 L188.868828,28.6531987 L194.797796,28.6531987 C195.421898,28.6531987 195.889975,29.1982323 195.889975,29.743266 L195.889975,30.9890572 C198.074331,28.7310606 200.960802,27.8745791 203.847273,27.8745791 C207.123808,27.8745791 209.854254,28.8089226 212.03861,30.6776094 C214.691043,32.8577441 215.705209,35.6607744 215.705209,40.5660774 L215.705209,40.5660774 Z M170.691862,27.8745791 C165.543021,27.8745791 163.124626,30.9890572 163.124626,30.9890572 L163.124626,14.5601852 L155.635404,14.5601852 L155.635404,57.9292929 L161.954435,57.9292929 C162.578537,57.9292929 163.046614,57.3842593 163.046614,56.8392256 L163.046614,55.5155724 C163.046614,55.5155724 165.465008,58.7079125 170.613849,58.7079125 C179.117237,58.7079125 185.748319,52.1675084 185.748319,43.2912458 C185.826332,34.4149832 179.195249,27.8745791 170.691862,27.8745791 L170.691862,27.8745791 Z M169.443658,51.6224747 C166.557187,51.6224747 164.294817,50.1430976 163.124626,48.4301347 L163.124626,37.996633 C164.294817,36.4393939 166.791225,34.8042929 169.443658,34.8042929 C174.436473,34.8042929 178.259097,37.918771 178.259097,43.2133838 C178.259097,48.5079966 174.436473,51.6224747 169.443658,51.6224747 L169.443658,51.6224747 Z M149.160347,27.8745791 C151.422716,27.8745791 152.592907,28.2638889 152.592907,28.2638889 L152.592907,35.1936027 C152.592907,35.1936027 146.351889,33.09133 142.451252,37.5294613 L142.451252,58.0071549 L134.962029,58.0071549 L134.962029,28.6531987 L141.281061,28.6531987 C141.905163,28.6531987 142.373239,29.1982323 142.373239,29.743266 L142.373239,30.9890572 C143.777468,29.3539562 146.819965,27.8745791 149.160347,27.8745791 L149.160347,27.8745791 Z M71.3816514,55.2819865 C70.9915877,54.3476431 70.6015241,53.3354377 70.2114604,52.4789562 C69.5873585,51.0774411 68.9632567,49.7537879 68.4171675,48.5079966 L68.3391548,48.4301347 C62.9562762,36.7508418 57.1911351,24.9158249 51.1061419,13.236532 L50.8721037,12.7693603 C50.2480018,11.601431 49.6239,10.3556397 48.9997981,9.10984848 C48.2196707,7.70833333 47.4395434,6.22895623 46.1913397,4.82744108 C43.6949322,1.71296296 40.1063464,0 36.2837225,0 C32.3830858,0 28.8725128,1.71296296 26.2980926,4.67171717 C25.1279015,6.07323232 24.2697615,7.55260943 23.4896341,8.95412458 C22.8655323,10.1999158 22.2414304,11.4457071 21.6173285,12.6136364 L21.3832903,13.0808081 C15.3763098,24.760101 9.52535479,36.5951178 4.14247616,48.2744108 L4.06446343,48.4301347 C3.51837429,49.6759259 2.89427242,50.9995791 2.27017055,52.4010943 C1.88010688,53.2575758 1.49004322,54.1919192 1.09997955,55.2041246 C0.0858140072,58.0850168 -0.226236928,60.8101852 0.163826741,63.6132155 C1.02196681,69.452862 4.9226035,74.358165 10.3054821,76.5382997 C12.3338132,77.3947811 14.440157,77.7840909 16.6245136,77.7840909 C17.2486154,77.7840909 18.0287428,77.706229 18.6528446,77.628367 C21.2272649,77.3169192 23.8796978,76.4604377 26.454118,74.9810606 C29.6526401,73.1902357 32.6951367,70.6207912 36.127697,66.8834175 C39.5602573,70.6207912 42.6807666,73.1902357 45.801276,74.9810606 C48.3756962,76.4604377 51.0281292,77.3169192 53.6025494,77.628367 C54.2266512,77.706229 55.0067786,77.7840909 55.6308805,77.7840909 C57.815237,77.7840909 59.9995935,77.3947811 61.9421106,76.5382997 C67.403002,74.358165 71.2256259,69.375 72.083766,63.6132155 C72.7078679,60.8880471 72.3958169,58.1628788 71.3816514,55.2819865 L71.3816514,55.2819865 Z M36.2057097,59.3308081 C31.9930221,54.0361953 29.2625764,49.0530303 28.3264236,44.8484848 C27.93636,43.0576599 27.8583472,41.5004209 28.0923854,40.0989057 C28.2484109,38.8531145 28.7164873,37.7630471 29.3405892,36.8287037 C30.8228311,34.726431 33.3192386,33.4027778 36.2057097,33.4027778 C39.0921809,33.4027778 41.6666011,34.648569 43.0708303,36.8287037 C43.6949322,37.7630471 44.1630086,38.8531145 44.3190341,40.0989057 C44.5530723,41.5004209 44.4750595,43.1355219 44.0849959,44.8484848 C43.1488431,48.9751684 40.4183974,53.9583333 36.2057097,59.3308081 L36.2057097,59.3308081 Z M67.3249892,62.9903199 C66.7789001,67.0391414 64.0484544,70.5429293 60.2336317,72.1001684 C58.3613261,72.8787879 56.3329951,73.1123737 54.304664,72.8787879 C52.3543456,72.645202 50.4040273,72.0223064 48.3756962,70.8543771 C45.5672378,69.297138 42.7587794,66.8834175 39.4822446,63.3017677 C44.631085,56.9949495 47.7515943,51.233165 48.9217854,46.0942761 C49.4678745,43.6805556 49.5458872,41.5004209 49.311849,39.4760101 C48.9997981,37.5294613 48.2976835,35.7386364 47.2055052,34.1813973 C44.7871105,30.6776094 40.7304483,28.6531987 36.2057097,28.6531987 C31.6809712,28.6531987 27.624309,30.7554714 25.2059143,34.1813973 C24.113736,35.7386364 23.4116214,37.5294613 23.0995705,39.4760101 C22.7875195,41.5004209 22.8655323,43.7584175 23.4896341,46.0942761 C24.6598251,51.233165 27.8583472,57.0728114 32.9291749,63.3796296 C29.7306528,66.9612795 26.8441817,69.375 24.0357233,70.9322391 C22.0073922,72.1001684 20.0570739,72.723064 18.1067555,72.9566498 C16.0004117,73.1902357 13.9720806,72.8787879 12.1777877,72.1780303 C8.35516379,70.6207912 5.62471811,67.1170034 5.07862897,63.0681818 C4.84459077,61.121633 5.00061624,59.1750842 5.78074357,56.9949495 C6.01478177,56.21633 6.40484544,55.4377104 6.79490911,54.503367 C7.34099825,53.2575758 7.96510012,51.9339226 8.58920199,50.6102694 L8.66721472,50.4545455 C14.0500934,38.8531145 19.8230357,27.0180976 25.8300162,15.4945286 L26.0640544,15.0273569 C26.6881562,13.8594276 27.3122581,12.6136364 27.93636,11.4457071 C28.5604618,10.1999158 29.2625764,9.03198653 30.1207165,8.01978114 C31.7589839,6.15109428 33.9433405,5.13888889 36.3617352,5.13888889 C38.78013,5.13888889 40.9644865,6.15109428 42.6027539,8.01978114 C43.460894,9.03198653 44.1630086,10.1999158 44.7871105,11.4457071 C45.4112123,12.6136364 46.0353142,13.8594276 46.6594161,15.0273569 L46.8934543,15.4945286 C52.822422,27.0959596 58.5953643,38.9309764 63.9704417,50.5324074 L63.9704417,50.6102694 C64.5945436,51.8560606 65.1406327,53.2575758 65.7647346,54.503367 C66.1547982,55.4377104 66.5448619,56.21633 66.7789001,56.9949495 C67.403002,59.0193603 67.6370402,60.9659091 67.3249892,62.9903199 L67.3249892,62.9903199 Z" id="Shape"></path>
                </g>
            </g>
        </g>
    </g>
</svg>