<?xml version="1.0" encoding="UTF-8" standalone="no"?>
<svg width="250px" height="76px" viewBox="0 0 250 76" version="1.1" xmlns="http://www.w3.org/2000/svg" xmlns:xlink="http://www.w3.org/1999/xlink">
    <!-- Generator: Sketch 39.1 (31720) - http://www.bohemiancoding.com/sketch -->
    <title>amazon</title>
    <desc>Created with Sketch.</desc>
    <defs></defs>
    <g id="Page-1" stroke="none" stroke-width="1" fill="none" fill-rule="evenodd">
        <g id="Artboard-4" transform="translate(-915.000000, -2976.000000)" fill="#BBBBBB">
            <g id="section4" transform="translate(0.000000, 2600.000000)">
                <g id="amazon" transform="translate(915.000000, 376.000000)">
                    <path d="M22.8059701,24.7056385 L22.8059701,23.0306799 C17.2180763,23.0306799 11.318408,24.2247098 11.318408,30.8126036 C11.318408,34.1500829 13.0472637,36.4096186 16.0116086,36.4096186 C18.1882255,36.4096186 20.13267,35.0746269 21.3598673,32.9021559 C22.8822554,30.2280265 22.8059701,27.7155887 22.8059701,24.7056385 L22.8059701,24.7056385 Z M30.5995025,43.5406302 C30.0887231,43.9966833 29.3495025,44.0298507 28.7732172,43.7271973 C26.2085406,41.5961857 25.752073,40.6053068 24.3391376,38.5737977 C20.0995025,42.9021559 17.0978441,44.1956882 11.6003317,44.1956882 C5.09950249,44.1956882 0.0331674959,40.1824212 0.0331674959,32.1517413 C0.0331674959,25.8789386 3.43698176,21.6086235 8.27529022,19.5190713 C12.4709784,17.6741294 18.3291874,17.3466003 22.8059701,16.8366501 L22.8059701,15.8374793 C22.8059701,13.9966833 22.946932,11.8242123 21.871476,10.2363184 C20.9245439,8.81426202 19.1210614,8.22553897 17.5331675,8.22553897 C14.5895522,8.22553897 11.9568823,9.73880597 11.318408,12.8689884 C11.185738,13.5655058 10.6757877,14.2495854 9.97927032,14.2827529 L2.47927032,13.4784411 C1.84908789,13.3374793 1.15257048,12.8233831 1.32669983,11.8573798 C3.05555556,2.7694859 11.2645108,0.0331674959 18.6111111,0.0331674959 C22.371476,0.0331674959 27.2844113,1.03233831 30.2516584,3.88059701 C34.0120232,7.3880597 33.6538143,12.0729685 33.6538143,17.172471 L33.6538143,29.2164179 C33.6538143,32.8358209 35.1538143,34.4237148 36.5667496,36.380597 C37.066335,37.0729685 37.1749585,37.9104478 36.5460199,38.4328358 C34.9697347,39.7470978 32.1654229,42.1932007 30.621476,43.5613599 L30.6007463,43.5613599 L30.5995025,43.5406302 Z M124.120647,24.7056385 L124.120647,23.0306799 C118.519486,23.0306799 112.619818,24.2247098 112.619818,30.8126036 C112.619818,34.1500829 114.356965,36.4096186 117.325456,36.4096186 C119.489635,36.4096186 121.446517,35.0746269 122.673715,32.9021559 C124.195274,30.2280265 124.120647,27.7155887 124.120647,24.7056385 L124.120647,24.7056385 Z M131.910862,43.5406302 C131.400912,43.9966833 130.662935,44.0298507 130.08665,43.7271973 C127.520315,41.5961857 127.051824,40.6053068 125.650498,38.5737977 C121.41335,42.9021559 118.4034,44.1956882 112.914179,44.1956882 C106.400912,44.1956882 101.347015,40.1824212 101.347015,32.1517413 C101.347015,25.8789386 104.738391,21.6086235 109.584992,19.5190713 C113.78068,17.6741294 119.638889,17.3466003 124.120647,16.8366501 L124.120647,15.8374793 C124.120647,13.9966833 124.261609,11.8242123 123.171227,10.2363184 C122.238391,8.81426202 120.434909,8.22553897 118.834577,8.22553897 C115.890962,8.22553897 113.27073,9.73880597 112.628109,12.8689884 C112.499585,13.5655058 111.989635,14.2495854 111.28068,14.2827529 L103.793118,13.4784411 C103.162935,13.3374793 102.45398,12.8233831 102.640547,11.8573798 C104.356965,2.7694859 112.574212,0.0331674959 119.924959,0.0331674959 C123.685323,0.0331674959 128.598259,1.03233831 131.562604,3.88059701 C135.327114,7.3880597 134.966418,12.0729685 134.966418,17.172471 L134.966418,29.2164179 C134.966418,32.8358209 136.467247,34.4237148 137.881012,36.380597 C138.370232,37.0729685 138.478027,37.9104478 137.839552,38.4328358 C136.264096,39.7470978 133.457297,42.1932007 131.915008,43.5613599 L131.910862,43.5406302 Z M227.084992,43.6484245 L219.390133,43.6484245 C218.614842,43.5945274 217.997098,42.9767828 217.997098,42.2139303 L217.997098,2.54145937 C218.063433,1.8159204 218.706053,1.24792703 219.489635,1.24792703 L226.649668,1.24792703 C227.325456,1.2893864 227.881012,1.7371476 228.030265,2.35903814 L228.030265,8.42454395 L228.171227,8.42454395 C230.335406,2.99751244 233.366086,0.410447761 238.706053,0.410447761 C242.172056,0.410447761 245.550995,1.66252073 247.727612,5.08706468 C249.746683,8.25870647 249.746683,13.5945274 249.746683,17.433665 L249.746683,42.4004975 C249.659619,43.0970149 249.021144,43.6484245 248.258292,43.6484245 L240.509536,43.6484245 C239.804726,43.5945274 239.216003,43.0721393 239.141376,42.4004975 L239.141376,20.858209 C239.141376,16.5215589 239.638889,10.1741294 234.303068,10.1741294 C232.420813,10.1741294 230.696103,11.4344942 229.833748,13.3457711 C228.747512,15.7711443 228.606551,18.1840796 228.606551,20.858209 L228.606551,42.2139303 C228.606551,43.0099502 227.922471,43.6484245 227.09743,43.6484245 L227.084992,43.6484245 Z M194.539801,0.410447761 C206.007463,0.410447761 212.21393,10.261194 212.21393,22.7819237 C212.21393,34.8797678 205.356551,44.4776119 194.539801,44.4776119 C183.279436,44.4776119 177.151741,34.6268657 177.151741,22.3590381 C177.151741,10.0082919 183.358209,0.410447761 194.539801,0.410447761 L194.539801,0.410447761 Z M194.606136,8.51160862 C188.909619,8.51160862 188.553068,16.2686567 188.553068,21.1069652 C188.553068,25.9535655 188.478441,36.3018242 194.539801,36.3018242 C200.53068,36.3018242 200.812604,27.9560531 200.812604,22.8689884 C200.812604,19.5190713 200.671642,15.5223881 199.660033,12.3466003 C198.793532,9.5854063 197.064677,8.51160862 194.606136,8.51160862 L194.606136,8.51160862 Z M51.708126,43.6484245 L43.9800995,43.6484245 C43.2421227,43.5945274 42.6533997,43.0431177 42.5995025,42.3341625 L42.5995025,2.67412935 C42.5995025,1.87810945 43.2628524,1.24792703 44.0878939,1.24792703 L51.2935323,1.24792703 C52.0439469,1.2893864 52.6409619,1.85737977 52.694859,2.57462687 L52.694859,7.76119403 L52.8358209,7.76119403 C54.7180763,2.74875622 58.2504146,0.410447761 63.0099502,0.410447761 C67.8482587,0.410447761 70.8706468,2.74875622 73.0431177,7.76119403 C74.9129353,2.74875622 79.1625207,0.410447761 83.7189055,0.410447761 C86.9568823,0.410447761 90.5016584,1.74958541 92.6616915,4.74709784 C95.1077944,8.08457711 94.6102819,12.9353234 94.6102819,17.1849088 L94.6102819,42.2139303 C94.6102819,43.0099502 93.946932,43.6484245 93.1177446,43.6484245 L85.4021559,43.6484245 C84.6310116,43.5945274 84.0091211,42.9767828 84.0091211,42.2139303 L84.0091211,21.1940299 C84.0091211,19.5190713 84.1625207,15.3482587 83.7935323,13.7603648 C83.2172471,11.0945274 81.4883914,10.3482587 79.2495854,10.3482587 C77.3797678,10.3482587 75.4228856,11.5961857 74.6310116,13.5945274 C73.8391376,15.5970149 73.9137645,18.9427861 73.9137645,21.1940299 L73.9137645,42.2139303 C73.9137645,43.0099502 73.2504146,43.6484245 72.4253731,43.6484245 L64.7097844,43.6484245 C63.9262023,43.5945274 63.3167496,42.9767828 63.3167496,42.2139303 L63.3167496,21.1940299 C63.3167496,16.7703151 64.0422886,10.261194 58.553068,10.261194 C53.0016584,10.261194 53.2172471,16.6086235 53.2172471,21.1940299 L53.2172471,42.2139303 C53.2172471,43.0099502 52.5538972,43.6484245 51.7288557,43.6484245 L51.708126,43.6484245 Z M144.369818,8.25041459 L144.369818,2.57462687 C144.369818,1.71641791 145.02073,1.14013267 145.804312,1.14013267 L171.206468,1.14013267 C172.019071,1.14013267 172.674129,1.72885572 172.674129,2.57462687 L172.674129,7.43366501 C172.674129,8.25041459 171.977612,9.3159204 170.758706,10.9991708 L157.595357,29.7927032 C162.487562,29.672471 167.649254,30.4021559 172.085406,32.9021559 C173.084577,33.4660033 173.358209,34.2910448 173.432836,35.1077944 L173.432836,41.1608624 C173.432836,41.9859038 172.52073,42.9560531 171.563018,42.4543947 C163.747927,38.358209 153.366501,37.9104478 144.726368,42.5 C143.84743,42.9767828 142.922886,42.0190713 142.922886,41.1940299 L142.922886,35.4436153 C142.922886,34.5190713 142.922886,32.9436153 143.859867,31.5422886 L159.108624,9.67247098 L145.837479,9.67247098 C145.02073,9.67247098 144.369818,9.09618574 144.369818,8.25041459 L144.369818,8.25041459 Z M160.978441,51.9776119 C159.129353,49.606136 148.71476,50.858209 144.042289,51.4096186 C142.620232,51.5837479 142.400498,50.3441128 143.685738,49.4527363 C151.977612,43.619403 165.584577,45.3026534 167.172471,47.2595357 C168.760365,49.2247098 166.757877,62.8689884 158.967662,69.3781095 C157.769486,70.3772803 156.629353,69.8466003 157.160033,68.5199005 C158.913765,64.1500829 162.835821,54.3573798 160.978441,51.9776119 L160.978441,51.9776119 Z M154.946103,58.8764511 C157.3466,57.0936982 155.294362,54.4444444 152.835821,55.4850746 C136.575456,62.3880597 118.893035,65.7131012 102.815091,65.7131012 C78.9800995,65.7131012 55.9038143,59.1832504 37.2404643,48.3250415 C35.6102819,47.36733 34.3922056,49.0422886 35.752073,50.2694859 C53.0431177,65.8872305 75.9038143,75.2819237 101.293532,75.2819237 C119.402985,75.2819237 140.435323,69.5729685 154.946103,58.8764511 L154.946103,58.8764511 Z" id="Shape"></path>
                </g>
            </g>
        </g>
    </g>
</svg>