<?xml version="1.0" encoding="UTF-8" standalone="no"?>
<svg width="56px" height="61px" viewBox="0 0 56 61" version="1.1" xmlns="http://www.w3.org/2000/svg" xmlns:xlink="http://www.w3.org/1999/xlink">
    <!-- Generator: Sketch 40 (33762) - http://www.bohemiancoding.com/sketch -->
    <title>little-cube</title>
    <desc>Created with Sketch.</desc>
    <defs>
        <path d="M27.126052,0.478111081 C27.6087201,0.214057622 28.3912143,0.21402175 28.873948,0.478111081 L54.8004706,14.6617439 C55.2831388,14.9257973 55.6744186,15.5913912 55.6744186,16.1473151 L55.6744186,44.4121048 C55.6744186,44.9685096 55.2832043,45.6335866 54.8004706,45.897676 L28.873948,60.0813088 C28.3912799,60.3453622 27.6087857,60.3453981 27.126052,60.0813088 L1.19952941,45.897676 C0.71686125,45.6336225 0.325581395,44.9680286 0.325581395,44.4121048 L0.325581395,16.1473151 C0.325581395,15.5909102 0.716795677,14.9258332 1.19952941,14.6617439 L27.126052,0.478111081 Z" id="path-1"></path>
        <mask id="mask-2" maskContentUnits="userSpaceOnUse" maskUnits="objectBoundingBox" x="0" y="0" width="55.3488372" height="59.9993048" fill="white">
            <use xlink:href="#path-1"></use>
        </mask>
    </defs>
    <g id="Page-1" stroke="none" stroke-width="1" fill="none" fill-rule="evenodd" stroke-opacity="0.7">
        <g id="Artboard-2" transform="translate(-70.000000, -2865.000000)" stroke="#FFFFFF">
            <g id="Section#3" transform="translate(0.000000, 2677.000000)">
                <g id="little-cube" transform="translate(70.000000, 188.000000)">
                    <use id="Rectangle-2" mask="url(#mask-2)" stroke-width="2" xlink:href="#path-1"></use>
                    <path d="M27.9413977,30.2797099 L27.9736744,58.8094435" id="Line" stroke-linecap="round" stroke-linejoin="round"></path>
                    <path d="M54.4789933,15.9385743 L27.9197076,30.2630652" id="Line" stroke-linecap="round" stroke-linejoin="round"></path>
                    <path d="M27.9323986,15.9221152 L1.70322334,30.3459705" id="Line" stroke-linecap="round" stroke-linejoin="round" transform="translate(14.817811, 23.134043) scale(-1, 1) translate(-14.817811, -23.134043) "></path>
                </g>
            </g>
        </g>
    </g>
</svg>