<?xml version="1.0" encoding="UTF-8" standalone="no"?>
<svg width="250px" height="104px" viewBox="0 0 250 104" version="1.1" xmlns="http://www.w3.org/2000/svg" xmlns:xlink="http://www.w3.org/1999/xlink">
    <!-- Generator: Sketch 39.1 (31720) - http://www.bohemiancoding.com/sketch -->
    <title>disney</title>
    <desc>Created with Sketch.</desc>
    <defs></defs>
    <g id="Page-1" stroke="none" stroke-width="1" fill="none" fill-rule="evenodd">
        <g id="Artboard-4" transform="translate(-115.000000, -2955.000000)" fill="#BBBBBB">
            <g id="section4" transform="translate(0.000000, 2600.000000)">
                <g id="disney" transform="translate(115.000000, 355.000000)">
                    <path d="M228.816372,38.7193442 C228.594554,46.7161064 221.052738,51.6738771 221.052738,59.6928217 C221.385465,59.970102 221.607284,60.3250207 221.940011,60.1475613 C227.929099,53.6148388 233.918188,44.3204051 242.569094,41.5254202 C244.787275,41.3923257 247.005456,43.3887435 247.781819,44.8527831 C250.776363,50.9418573 250.110909,59.5042711 245.896365,65.0276936 C241.460003,70.4512951 233.918188,75.8859879 225.267282,74.9654175 C221.607284,83.7496556 219.278193,93.0662717 217.725467,102.715624 C217.060013,104.712042 215.396377,102.937448 214.287286,102.604712 C206.85638,96.6154588 212.956378,81.0877652 213.400014,79.1024387 C213.954559,77.1171122 215.950922,72.4366217 217.39274,68.5103334 C213.954559,62.2659824 216.061831,54.7128686 218.945466,48.9232571 C221.052738,45.1189722 224.158192,41.2592312 227.81819,38.1869661 C228.150917,38.1869661 228.594554,38.3200606 228.816372,38.7193442 L228.816372,38.7193442 Z M243.678184,48.6570681 C242.569094,48.4685175 242.125458,49.9325572 241.238185,50.2098374 C236.912732,55.00124 232.698188,59.7815514 230.590916,65.4935244 C233.474552,65.8484431 235.914551,64.0073023 238.243641,62.9980022 C242.569094,60.3250207 245.230911,55.9218104 245.009093,50.8531276 C244.787275,50.0212869 244.010911,49.3890879 243.678184,48.6570681 L243.678184,48.6570681 Z M83.7806086,22.4596308 C92.2651508,29.3916368 103.278419,41.2592312 101.903147,54.8126894 C100.250602,65.5822541 88.8380612,73.6788371 79.1778831,76.2519978 C69.7949775,79.0026178 58.0275275,78.7364288 48.4560765,76.529278 C47.8128041,78.270598 47.1584407,80.389019 45.1288051,81.1210389 C43.853351,81.5757785 42.2008062,81.3095894 41.1915338,80.4888399 C38.3300804,77.8158584 40.6258977,72.6584459 36.5000811,71.0058556 C28.3926296,67.6008542 19.6640875,60.8906724 15.5160891,52.5944475 C14.9726347,50.9418573 15.6491799,49.289267 16.6251795,48.0026867 C22.9691771,42.9894599 30.9657195,40.8599476 38.9733529,39.3848168 C39.42808,39.5179113 39.2506255,38.8524387 39.6166254,38.7193442 C40.0824434,33.2513778 40.2709887,27.5283136 42.0122608,22.5927253 C42.4115334,21.9272527 43.387533,21.6610637 44.0418964,22.1934417 C49.0882581,26.0531827 46.7037136,33.2513778 48.9108036,38.5862497 C58.5709818,38.9855332 68.2311599,39.3848168 75.8727934,44.8527831 C78.4458833,46.9822954 79.066974,51.0305869 78.257338,53.3486498 C77.4477019,55.6556214 74.7637029,57.2860292 72.2682493,57.4745798 C70.6157045,57.4745798 67.4991602,57.6409479 67.6766147,56.37655 C67.8651601,55.1010609 73.2997035,53.0380959 71.6360677,51.3189584 C69.2293414,48.8345274 57.2068005,47.3593965 49.7537124,46.4499173 C48.8442582,46.3168228 47.9902585,46.5830118 47.9902585,47.5479471 C47.8128041,54.5354092 47.2582588,62.2659824 48.4560765,68.9761642 C48.5891674,69.4309038 49.0882581,69.9965555 49.5540761,70.0852852 C62.7189802,72.192615 76.6047931,71.0058556 86.9082438,63.463833 C91.6995147,59.5930008 93.2522413,54.1693993 92.4315144,48.1912373 C88.283516,31.5211491 70.904068,21.5279691 56.6411643,15.1283411 C42.7442605,8.99490218 27.3833573,5.9337283 10.9133635,6.7322954 C8.29590998,6.86538991 4.13682065,7.79705153 4.1068752,8.72871314 C4.08469339,9.66037476 8.8171825,9.39418573 8.24045545,11.1244144 C7.67925566,12.8657344 2.86469386,11.789887 1.43840349,11.3906035 C0.0121131214,10.9913199 0.151858523,8.86180766 0.517858384,7.66395701 C4.1068752,1.26432902 14.118635,0.731950951 18.6437242,0.465761918 C43.6648056,-0.0777073574 67.8651601,9.39418573 83.7806086,22.4596308 L83.7806086,22.4596308 Z M38.6960802,47.1153899 C32.3520827,47.1153899 25.6309943,47.8252273 19.7417238,50.0212869 C18.554997,50.4871177 17.0688157,51.773698 17.9893608,53.3486498 C20.3960872,56.5540094 23.800995,59.2158997 27.0173574,61.0681317 C30.2226289,62.9314549 34.4704455,65.3049738 38.3300804,65.8484431 C39.2506255,59.8813723 39.2506255,53.9808487 39.1618983,47.8252273 C38.7848075,47.6366768 39.1618983,47.2706669 38.6960802,47.1153899 L38.6960802,47.1153899 Z M215.06365,43.3887435 C215.618195,44.1873106 216.061831,45.2520667 215.06365,45.7844448 C210.960015,47.6366768 205.414562,46.8492009 200.534564,47.3593965 C199.425474,48.4685175 198.316383,50.3096583 198.870929,51.9622486 C199.203656,52.2395288 199.647292,52.6499036 200.201837,52.5944475 C203.085472,52.7829981 207.521834,51.2302287 209.518197,53.9808487 C209.850924,54.8015982 209.407288,57.8627721 208.07638,57.9404106 C204.416381,58.3951502 198.538201,57.485671 196.874566,58.3951502 C194.545476,59.8813723 194.878203,62.7318132 193.99093,65.0276936 C195.543657,66.0369937 197.207293,65.0276936 199.092747,64.7393221 C202.420018,64.1958529 206.190926,63.1865528 209.629106,63.9185726 C210.294561,65.1164233 211.181833,66.4140948 210.516379,67.8781345 C204.749108,72.4698953 197.207293,77.1947506 189.221841,73.8562965 C186.338206,72.5142601 185.007297,67.9668641 186.005479,64.1071232 C186.560024,61.345412 189.554568,58.6724304 187.780024,55.7332599 C187.558206,54.4355883 188.22366,53.3486498 189.221841,53.0602783 C192.327295,53.0602783 191.66184,49.289267 193.214567,47.5479471 C191.550931,45.6513502 187.114569,45.6513502 187.558206,41.7916093 C189.665477,40.7268531 192.327295,41.1261367 194.545476,40.7268531 C200.090928,39.6510058 206.190926,38.9855332 211.625469,39.6510058 C212.73456,39.7841003 214.287286,42.0577983 215.06365,43.3887435 L215.06365,43.3887435 Z M112.916416,44.7196886 C113.803688,53.5150179 114.247324,61.7114219 114.025506,71.0058556 C113.914597,72.192615 112.47278,72.4698953 111.585507,72.9357261 C110.143689,73.2019151 108.147327,72.9357261 107.614963,72.1149766 C105.485509,68.698884 106.2286,64.1071232 106.040055,59.970102 C106.317327,53.4262882 106.2286,46.3168228 108.036418,40.3164784 C108.369145,39.3848168 109.478235,38.5862497 110.254599,39.1186277 C112.47278,40.3164784 112.805507,42.4570818 112.916416,44.7196886 L112.916416,44.7196886 Z M153.065491,41.2592312 C153.065491,42.5901764 152.06731,44.3204051 151.069128,44.4534996 C142.307314,45.9175393 132.436408,45.1189722 124.11823,47.8252273 C123.896412,48.8234362 125.116411,49.0119868 125.670956,49.289267 C132.880044,50.398388 140.310951,50.664577 147.076403,52.4280794 C150.84731,53.3486498 152.178219,57.6631303 152.400037,61.2455911 C152.621855,64.0738495 151.512765,67.5010333 148.740038,69.4309038 C141.974586,73.7675668 131.549136,73.5790163 124.672775,69.6194544 C122.010958,68.1443235 119.46005,65.7597134 119.238231,62.8094516 C119.238231,60.4802976 120.347322,58.6391568 121.900049,57.7629512 C128.554592,55.0899697 136.761861,56.5540094 142.418223,59.970102 C142.861859,61.8112428 140.865496,61.7003307 139.867315,62.354712 C133.545499,66.0369937 128.77641,58.2065996 122.89823,61.0681317 C122.010958,61.6226922 121.456412,63.1532791 122.454594,63.6523836 C129.663682,66.8577432 137.760043,64.572954 144.969131,62.5432626 C145.745494,62.2659824 146.854585,61.4341416 146.854585,60.6133921 C146.632767,57.6631303 143.305495,57.0198402 141.087314,56.1990907 C134.987316,54.6241389 128.000046,54.6241389 121.345503,53.9808487 C120.014595,53.7035685 118.350959,52.8162717 118.018232,51.773698 C117.241869,49.5776385 117.241869,46.5830118 118.905504,44.7196886 C127.445501,37.12221 140.42186,37.7876826 151.290947,39.7841003 C152.06731,40.0502893 152.843673,40.3164784 153.065491,41.2592312 L153.065491,41.2592312 Z M181.014572,43.3887435 C183.898207,50.5869386 186.338206,61.8888812 181.014572,68.7987049 C179.461845,70.4512951 176.800028,71.9818821 175.247301,70.7285754 C169.147303,65.8484431 166.596395,58.860981 162.825488,52.5944475 C162.270942,52.3282585 162.270942,53.0602783 161.938215,53.3486498 C160.607307,59.6928217 163.158215,67.9668641 158.832762,72.9357261 C157.280035,73.2019151 155.616399,72.3700744 155.172763,70.7285754 C152.954582,64.1958529 155.172763,57.3858501 155.838218,50.8531276 C156.947308,47.5479471 157.501853,43.6549325 160.496398,41.2592312 C164.93276,42.9894599 167.26185,48.1912373 169.923667,51.9622486 C171.809121,54.8126894 173.361847,58.0402315 175.690937,60.6133921 C177.465482,59.7815514 176.57821,57.2527556 176.57821,55.7332599 C175.801846,49.7440066 174.138211,44.1873106 172.585484,38.5862497 C172.474575,36.9891155 171.698212,34.5934142 173.250938,33.6617525 C177.354573,35.5250758 179.129118,39.7841003 181.014572,43.3887435 L181.014572,43.3887435 Z M125.670956,11.789887 C127.445501,11.789887 128.998228,12.4664508 130.329136,13.5312069 C132.103681,15.2614357 132.547317,18.0564205 131.660045,20.197024 C128.443683,26.862841 120.790958,31.25496 115.578233,32.7189997 C112.47278,33.528658 108.480054,33.528658 105.674055,32.3197162 C104.287692,33.2513778 103.134238,35.9243593 101.437329,34.7265087 C98.9973301,32.8520942 101.115693,29.9240149 99.707148,27.7945026 C99.4076936,27.2621246 98.6756938,27.2621246 98.3207849,26.596652 C96.3909674,22.3265362 98.775512,18.3226095 101.437329,15.1283411 C105.895873,10.0596583 118.683686,4.59169193 125.670956,11.789887 L125.670956,11.789887 Z M110.920053,15.1283411 C108.480054,15.5276247 105.629691,16.5923808 104.121328,18.3226095 C102.601874,20.197024 101.625875,21.9272527 102.54642,23.6574814 C105.773873,21.2617801 107.3266,18.0564205 110.920053,15.9269082 C110.920053,15.6607192 111.474598,15.3945302 110.920053,15.1283411 L110.920053,15.1283411 Z M125.892774,15.9269082 C119.570959,15.3945302 114.80187,20.197024 110.254599,24.855332 C110.03278,25.5208046 108.369145,26.3304629 109.589144,27.2621246 C115.689142,27.7945026 121.456412,26.0531827 125.892774,21.9272527 C127.223683,20.729402 128.110955,19.2653624 127.445501,17.5240424 C127.223683,16.8585699 126.558229,16.3261918 125.892774,15.9269082 L125.892774,15.9269082 Z" id="Shape"></path>
                </g>
            </g>
        </g>
    </g>
</svg>