<?xml version="1.0" encoding="UTF-8" standalone="no"?>
<svg width="250px" height="69px" viewBox="0 0 250 69" version="1.1" xmlns="http://www.w3.org/2000/svg" xmlns:xlink="http://www.w3.org/1999/xlink">
    <!-- Generator: Sketch 39.1 (31720) - http://www.bohemiancoding.com/sketch -->
    <title>dropbox</title>
    <desc>Created with Sketch.</desc>
    <defs></defs>
    <g id="Page-1" stroke="none" stroke-width="1" fill="none" fill-rule="evenodd">
        <g id="Artboard-4" transform="translate(-515.000000, -2976.000000)" fill="#BBBBBB">
            <g id="section4" transform="translate(0.000000, 2600.000000)">
                <g id="dropbox" transform="translate(515.000000, 376.000000)">
                    <path d="M226.578947,24.0947368 L233.736842,37.7894737 L225.473684,52.1052632 L232.263158,52.1052632 L236.947368,43.6842105 L241.105263,52.1052632 L249.526316,52.1052632 L241.157895,36.4210526 L248.421053,24.0947368 L241.684211,24.0947368 L238.052632,30.5684211 L235.052632,24.0947368 L226.578947,24.0947368 L226.578947,24.0947368 Z M215.526316,28.9263158 C217.947368,28.9263158 218.789474,30.8578947 218.789474,38.0526316 C218.789474,45.5263158 217.789474,47.2105263 215.526316,47.2105263 C213.210526,47.2105263 212.210526,45.4736842 212.210526,38.0526316 C212.210526,31.2 213,28.9263158 215.473684,28.9263158 L215.526316,28.9263158 L215.526316,28.9263158 Z M215.526316,23.4789474 C207.157895,23.4789474 204.105263,29.3263158 204.105263,38.0526316 C204.105263,47.0526316 207.421053,52.6842105 215.473684,52.6842105 C223.684211,52.6842105 226.947368,47 226.947368,38.0526316 C226.947368,29.3263158 223.789474,23.4789474 215.526316,23.4789474 L215.526316,23.4789474 Z M187.210526,34 C187.210526,32.5578947 187.210526,31.1315789 188.157895,30.0578947 C188.684211,29.3157895 189.578947,28.8684211 190.631579,28.8684211 C192.894737,28.8684211 194.052632,30.7421053 194.052632,38.1052632 C194.052632,45.3157895 192.947368,47.2631579 190.473684,47.2631579 C187.210526,47.2631579 187.210526,43.6315789 187.210526,40.4210526 L187.210526,34 L187.210526,34 Z M179.526316,14.2421053 L179.526316,52.1052632 L184.157895,52.1052632 C184.736842,50.1052632 185.052632,49.5263158 185.631579,48.4736842 C186.315789,49.8421053 187.631579,52.6842105 192.052632,52.6842105 C193.578947,52.6842105 195.105263,52.3684211 196.631579,51.5789474 C201.736842,48.8947368 202.105263,40.4736842 202.105263,37.8947368 C202.105263,31.1315789 199.894737,23.7052632 193.105263,23.7052632 C189.684211,23.7052632 188.157895,25.5210526 187.210526,26.7105263 L187.210526,14.2421053 L179.526316,14.2421053 L179.526316,14.2421053 Z M162.368421,35.3157895 C162.368421,32.8315789 162.368421,28.8684211 165.947368,28.8684211 C168.894737,28.8684211 169.105263,32.7736842 169.105263,37.7368421 C169.105263,43.6315789 168.842105,47.0526316 165.631579,47.0526316 C162.368421,47.0526316 162.368421,44.6842105 162.368421,40.6842105 L162.368421,35.3157895 L162.368421,35.3157895 Z M154.684211,24.0947368 L154.684211,61.5263158 L162.368421,61.5263158 L162.368421,50.0526316 C163.263158,50.8947368 164.631579,52.4210526 167.736842,52.4210526 C176.684211,52.4210526 177.157895,41.6842105 177.157895,37.7368421 C177.157895,33.0105263 176.315789,28.6368421 173.526316,25.8526316 C172.157895,24.4947368 170.157895,23.6947368 168.263158,23.6947368 C164.421053,23.6947368 162.894737,26.4789474 161.947368,28.2947368 L161.947368,24.0947368 L154.684211,24.0947368 L154.684211,24.0947368 Z M141,28.9263158 C143.421053,28.9263158 144.263158,30.8578947 144.263158,38.0526316 C144.263158,45.5263158 143.263158,47.2105263 141,47.2105263 C138.684211,47.2105263 137.684211,45.4736842 137.684211,38.0526316 C137.684211,31.2 138.473684,28.9263158 140.947368,28.9263158 L141,28.9263158 L141,28.9263158 Z M141,23.4789474 C132.684211,23.4789474 129.631579,29.3263158 129.631579,38.0526316 C129.631579,47.0526316 132.894737,52.6842105 140.947368,52.6842105 C149.157895,52.6842105 152.421053,47 152.421053,38.0526316 C152.421053,29.3263158 149.315789,23.4789474 141,23.4789474 L141,23.4789474 Z M113.684211,24.0947368 L113.684211,52.1052632 L121.473684,52.1052632 L121.473684,40 C121.473684,37.8421053 121.473684,31.3578947 127.210526,31.3578947 C127.526316,31.3578947 127.842105,31.3578947 128.526316,31.4736842 L128.526316,23.8684211 C128.157895,23.7526316 127.736842,23.6947368 127.157895,23.6947368 C122.631579,23.6947368 121.263158,28.4684211 120.578947,30.8526316 L120.578947,24.0947368 L113.684211,24.0947368 L113.684211,24.0947368 Z M92.6315789,20.7789474 L94.1052632,20.7789474 C97.4210526,20.7789474 102,21.1421053 102,32.8052632 C102,45.1578947 97.3684211,45.5789474 94.1052632,45.5789474 L92.6315789,45.5789474 L92.6315789,20.7789474 L92.6315789,20.7789474 Z M84.3684211,52.1052632 L94.3157895,52.1052632 C97.2105263,52.1052632 101.263158,52.1052632 104.631579,49.4736842 C108.684211,46.3684211 110.789474,40 110.789474,32.9210526 C110.789474,14.3105263 99.0526316,14.2421053 93.3157895,14.2421053 L84.3684211,14.2421053 L84.3684211,52.1052632 L84.3684211,52.1052632 Z M36.8421053,42.2105263 L21.7526316,54.7894737 L15.2894737,50.5789474 L15.2894737,55.2631579 L36.8421053,68.2105263 L58.4210526,55.2631579 L58.4210526,50.5789474 L51.9473684,54.7894737 L36.8421053,42.2105263 L36.8421053,42.2105263 Z M73.3684211,14.2421053 L51.8947368,0.147368421 L36.7894737,12.7894737 L58.5263158,26.1578947 L73.3684211,14.2421053 L73.3684211,14.2421053 Z M36.7894737,39.5263158 L51.8947368,52.1052632 L73.3684211,38.0526316 L58.5263158,26.1315789 L36.7894737,39.5263158 L36.7894737,39.5263158 Z M0.252631579,38.0526316 L21.7526316,52.1052632 L36.7894737,39.5263158 L15.1421053,26.1315789 L0.252631579,38.0526316 L0.252631579,38.0526316 Z M21.7526316,0.147368421 L0.252631579,14.1684211 L15.1421053,26.1157895 L36.7894737,12.7157895 L21.7526316,0.147368421 L21.7526316,0.147368421 Z" id="Shape"></path>
                </g>
            </g>
        </g>
    </g>
</svg>