<?xml version="1.0" encoding="UTF-8" standalone="no"?>
<svg width="385px" height="339px" viewBox="0 0 385 339" version="1.1" xmlns="http://www.w3.org/2000/svg" xmlns:xlink="http://www.w3.org/1999/xlink">
    <!-- Generator: Sketch 40 (33762) - http://www.bohemiancoding.com/sketch -->
    <title>#1</title>
    <desc>Created with Sketch.</desc>
    <defs>
        <path d="M19.9070671,0.484504929 C20.3946975,0.216920245 21.1821302,0.21517945 21.6729329,0.484504929 L40.4553229,10.7912461 C40.9429533,11.0588308 41.3382558,11.7262259 41.3382558,12.2738593 L41.3382558,32.829145 C41.3382558,33.380385 40.9461256,34.0424327 40.4553229,34.3117581 L21.6729329,44.6184994 C21.1853025,44.886084 20.3978698,44.8878248 19.9070671,44.6184994 L1.12467705,34.3117581 C0.637046696,34.0441735 0.241744186,33.3767784 0.241744186,32.829145 L0.241744186,12.2738593 C0.241744186,11.7226193 0.633874374,11.0605716 1.12467705,10.7912461 L19.9070671,0.484504929 Z" id="path-1"></path>
        <mask id="mask-2" maskContentUnits="userSpaceOnUse" maskUnits="objectBoundingBox" x="0" y="0" width="41.0965116" height="44.5366781" fill="white">
            <use xlink:href="#path-1"></use>
        </mask>
        <path d="M19.9070671,0.484504929 C20.3946975,0.216920245 21.1821302,0.21517945 21.6729329,0.484504929 L40.4553229,10.7912461 C40.9429533,11.0588308 41.3382558,11.7262259 41.3382558,12.2738593 L41.3382558,32.829145 C41.3382558,33.380385 40.9461256,34.0424327 40.4553229,34.3117581 L21.6729329,44.6184994 C21.1853025,44.886084 20.3978698,44.8878248 19.9070671,44.6184994 L1.12467705,34.3117581 C0.637046696,34.0441735 0.241744186,33.3767784 0.241744186,32.829145 L0.241744186,12.2738593 C0.241744186,11.7226193 0.633874374,11.0605716 1.12467705,10.7912461 L19.9070671,0.484504929 Z" id="path-3"></path>
        <mask id="mask-4" maskContentUnits="userSpaceOnUse" maskUnits="objectBoundingBox" x="0" y="0" width="41.0965116" height="44.5366781" fill="white">
            <use xlink:href="#path-3"></use>
        </mask>
        <path d="M19.9070671,0.484504929 C20.3946975,0.216920245 21.1821302,0.21517945 21.6729329,0.484504929 L40.4553229,10.7912461 C40.9429533,11.0588308 41.3382558,11.7262259 41.3382558,12.2738593 L41.3382558,32.829145 C41.3382558,33.380385 40.9461256,34.0424327 40.4553229,34.3117581 L21.6729329,44.6184994 C21.1853025,44.886084 20.3978698,44.8878248 19.9070671,44.6184994 L1.12467705,34.3117581 C0.637046696,34.0441735 0.241744186,33.3767784 0.241744186,32.829145 L0.241744186,12.2738593 C0.241744186,11.7226193 0.633874374,11.0605716 1.12467705,10.7912461 L19.9070671,0.484504929 Z" id="path-5"></path>
        <mask id="mask-6" maskContentUnits="userSpaceOnUse" maskUnits="objectBoundingBox" x="0" y="0" width="41.0965116" height="44.5366781" fill="white">
            <use xlink:href="#path-5"></use>
        </mask>
        <path d="M19.9070671,0.484504929 C20.3946975,0.216920245 21.1821302,0.21517945 21.6729329,0.484504929 L40.4553229,10.7912461 C40.9429533,11.0588308 41.3382558,11.7262259 41.3382558,12.2738593 L41.3382558,32.829145 C41.3382558,33.380385 40.9461256,34.0424327 40.4553229,34.3117581 L21.6729329,44.6184994 C21.1853025,44.886084 20.3978698,44.8878248 19.9070671,44.6184994 L1.12467705,34.3117581 C0.637046696,34.0441735 0.241744186,33.3767784 0.241744186,32.829145 L0.241744186,12.2738593 C0.241744186,11.7226193 0.633874374,11.0605716 1.12467705,10.7912461 L19.9070671,0.484504929 Z" id="path-7"></path>
        <mask id="mask-8" maskContentUnits="userSpaceOnUse" maskUnits="objectBoundingBox" x="0" y="0" width="41.0965116" height="44.5366781" fill="white">
            <use xlink:href="#path-7"></use>
        </mask>
        <path d="M19.9070671,0.484504929 C20.3946975,0.216920245 21.1821302,0.21517945 21.6729329,0.484504929 L40.4553229,10.7912461 C40.9429533,11.0588308 41.3382558,11.7262259 41.3382558,12.2738593 L41.3382558,32.829145 C41.3382558,33.380385 40.9461256,34.0424327 40.4553229,34.3117581 L21.6729329,44.6184994 C21.1853025,44.886084 20.3978698,44.8878248 19.9070671,44.6184994 L1.12467705,34.3117581 C0.637046696,34.0441735 0.241744186,33.3767784 0.241744186,32.829145 L0.241744186,12.2738593 C0.241744186,11.7226193 0.633874374,11.0605716 1.12467705,10.7912461 L19.9070671,0.484504929 Z" id="path-9"></path>
        <mask id="mask-10" maskContentUnits="userSpaceOnUse" maskUnits="objectBoundingBox" x="0" y="0" width="41.0965116" height="44.5366781" fill="white">
            <use xlink:href="#path-9"></use>
        </mask>
        <path d="M19.9070671,0.484504929 C20.3946975,0.216920245 21.1821302,0.21517945 21.6729329,0.484504929 L40.4553229,10.7912461 C40.9429533,11.0588308 41.3382558,11.7262259 41.3382558,12.2738593 L41.3382558,32.829145 C41.3382558,33.380385 40.9461256,34.0424327 40.4553229,34.3117581 L21.6729329,44.6184994 C21.1853025,44.886084 20.3978698,44.8878248 19.9070671,44.6184994 L1.12467705,34.3117581 C0.637046696,34.0441735 0.241744186,33.3767784 0.241744186,32.829145 L0.241744186,12.2738593 C0.241744186,11.7226193 0.633874374,11.0605716 1.12467705,10.7912461 L19.9070671,0.484504929 Z" id="path-11"></path>
        <mask id="mask-12" maskContentUnits="userSpaceOnUse" maskUnits="objectBoundingBox" x="0" y="0" width="41.0965116" height="44.5366781" fill="white">
            <use xlink:href="#path-11"></use>
        </mask>
        <path d="M65.3442708,0.486680518 C65.8279227,0.21789429 66.6043631,0.213607178 67.0957292,0.486680518 L130.794271,35.88671 C131.277923,36.1554963 131.67,36.819082 131.67,37.3740775 L131.67,108.119485 C131.67,108.672149 131.285637,109.333779 130.794271,109.606852 L67.0957292,145.006882 C66.6120773,145.275668 65.8356369,145.279955 65.3442708,145.006882 L1.64572919,109.606852 C1.16207731,109.338066 0.77,108.67448 0.77,108.119485 L0.77,37.3740775 C0.77,36.8214134 1.15436312,36.1597834 1.64572919,35.88671 L65.3442708,0.486680518 Z" id="path-13"></path>
        <mask id="mask-14" maskContentUnits="userSpaceOnUse" maskUnits="objectBoundingBox" x="0" y="0" width="130.9" height="144.926602" fill="white">
            <use xlink:href="#path-13"></use>
        </mask>
        <path d="M65.3442708,0.486680518 C65.8279227,0.21789429 66.6043631,0.213607178 67.0957292,0.486680518 L130.794271,35.88671 C131.277923,36.1554963 131.67,36.819082 131.67,37.3740775 L131.67,108.119485 C131.67,108.672149 131.285637,109.333779 130.794271,109.606852 L67.0957292,145.006882 C66.6120773,145.275668 65.8356369,145.279955 65.3442708,145.006882 L1.64572919,109.606852 C1.16207731,109.338066 0.77,108.67448 0.77,108.119485 L0.77,37.3740775 C0.77,36.8214134 1.15436312,36.1597834 1.64572919,35.88671 L65.3442708,0.486680518 Z" id="path-15"></path>
        <mask id="mask-16" maskContentUnits="userSpaceOnUse" maskUnits="objectBoundingBox" x="0" y="0" width="130.9" height="144.926602" fill="white">
            <use xlink:href="#path-15"></use>
        </mask>
        <path d="M65.3442708,0.486680518 C65.8279227,0.21789429 66.6043631,0.213607178 67.0957292,0.486680518 L130.794271,35.88671 C131.277923,36.1554963 131.67,36.8194476 131.67,37.3731212 L131.67,149.016218 C131.67,149.568354 131.285637,150.229556 130.794271,150.502629 L67.0957292,185.902659 C66.6120773,186.171445 65.8356369,186.175732 65.3442708,185.902659 L1.64572919,150.502629 C1.16207731,150.233843 0.77,149.569891 0.77,149.016218 L0.77,37.3731212 C0.77,36.8209852 1.15436312,36.1597834 1.64572919,35.88671 L65.3442708,0.486680518 Z" id="path-17"></path>
        <mask id="mask-18" maskContentUnits="userSpaceOnUse" maskUnits="objectBoundingBox" x="0" y="0" width="130.9" height="185.822379" fill="white">
            <use xlink:href="#path-17"></use>
        </mask>
        <path d="M110.446072,67.1338422 C111.107669,66.9471283 123.41273,67.6624978 123.41273,67.6624978 C123.953915,67.6933461 124.153828,68.0963883 123.858913,68.5602739 C123.858913,68.5602739 120.607852,73.7433086 120.028253,74.0676877 C119.448654,74.3920667 107.178836,73.3861879 107.178836,73.3861879 C106.63942,73.3429809 106.428567,72.932756 106.724349,72.4475804 C106.724349,72.4475804 109.784476,67.3205561 110.446072,67.1338422 Z" id="path-19"></path>
        <mask id="mask-20" maskContentUnits="userSpaceOnUse" maskUnits="objectBoundingBox" x="0" y="0" width="17.4050864" height="7.02936633" fill="white">
            <use xlink:href="#path-19"></use>
        </mask>
        <path d="M109.88326,101.324519 C110.544857,101.137805 122.849918,101.853175 122.849918,101.853175 C123.391103,101.884023 123.591016,102.287065 123.296101,102.750951 C123.296101,102.750951 120.04504,107.933985 119.465441,108.258364 C118.885842,108.582744 106.616024,107.576865 106.616024,107.576865 C106.076608,107.533658 105.865755,107.123433 106.161537,106.638257 C106.161537,106.638257 109.221663,101.511233 109.88326,101.324519 Z" id="path-21"></path>
        <mask id="mask-22" maskContentUnits="userSpaceOnUse" maskUnits="objectBoundingBox" x="0" y="0" width="17.4050864" height="7.02936633" fill="white">
            <use xlink:href="#path-21"></use>
        </mask>
        <path d="M109.88326,136.242974 C110.544857,136.05626 122.849918,136.77163 122.849918,136.77163 C123.391103,136.802478 123.591016,137.20552 123.296101,137.669406 C123.296101,137.669406 120.04504,142.85244 119.465441,143.176819 C118.885842,143.501198 106.616024,142.49532 106.616024,142.49532 C106.076608,142.452113 105.865755,142.041888 106.161537,141.556712 C106.161537,141.556712 109.221663,136.429688 109.88326,136.242974 Z" id="path-23"></path>
        <mask id="mask-24" maskContentUnits="userSpaceOnUse" maskUnits="objectBoundingBox" x="0" y="0" width="17.4050864" height="7.02936633" fill="white">
            <use xlink:href="#path-23"></use>
        </mask>
        <path d="M65.3442708,0.486680518 C65.8279227,0.21789429 66.6043631,0.213607178 67.0957292,0.486680518 L130.794271,35.88671 C131.277923,36.1554963 131.67,36.819082 131.67,37.3740775 L131.67,108.119485 C131.67,108.672149 131.285637,109.333779 130.794271,109.606852 L67.0957292,145.006882 C66.6120773,145.275668 65.8356369,145.279955 65.3442708,145.006882 L1.64572919,109.606852 C1.16207731,109.338066 0.77,108.67448 0.77,108.119485 L0.77,37.3740775 C0.77,36.8214134 1.15436312,36.1597834 1.64572919,35.88671 L65.3442708,0.486680518 Z" id="path-25"></path>
        <mask id="mask-26" maskContentUnits="userSpaceOnUse" maskUnits="objectBoundingBox" x="0" y="0" width="130.9" height="144.926602" fill="white">
            <use xlink:href="#path-25"></use>
        </mask>
        <path d="M65.3442708,0.486680518 C65.8279227,0.21789429 66.6043631,0.213607178 67.0957292,0.486680518 L130.794271,35.88671 C131.277923,36.1554963 131.67,36.819082 131.67,37.3740775 L131.67,108.119485 C131.67,108.672149 131.285637,109.333779 130.794271,109.606852 L67.0957292,145.006882 C66.6120773,145.275668 65.8356369,145.279955 65.3442708,145.006882 L1.64572919,109.606852 C1.16207731,109.338066 0.77,108.67448 0.77,108.119485 L0.77,37.3740775 C0.77,36.8214134 1.15436312,36.1597834 1.64572919,35.88671 L65.3442708,0.486680518 Z" id="path-27"></path>
        <mask id="mask-28" maskContentUnits="userSpaceOnUse" maskUnits="objectBoundingBox" x="0" y="0" width="130.9" height="144.926602" fill="white">
            <use xlink:href="#path-27"></use>
        </mask>
    </defs>
    <g id="Page-1" stroke="none" stroke-width="1" fill="none" fill-rule="evenodd">
        <g id="Artboard-2" transform="translate(-171.000000, -1403.000000)">
            <g id="section#2" transform="translate(2.000000, 1011.000000)">
                <g id="#1" transform="translate(169.000000, 392.000000)">
                    <g id="little-cube" transform="translate(189.420000, 261.888412)" stroke="#979797" stroke-opacity="0.7">
                        <use id="Rectangle-2" mask="url(#mask-2)" stroke-width="2" fill="#FFFFFF" xlink:href="#path-1"></use>
                        <path d="M20.7464878,22.5515021 L20.7704532,43.7996697" id="Line" stroke-linecap="round" stroke-linejoin="round"></path>
                        <path d="M40.4506525,11.8706154 L20.7303829,22.5391056" id="Line" stroke-linecap="round" stroke-linejoin="round"></path>
                        <path d="M20.7398059,11.8583572 L1.26464333,22.6008512" id="Line" stroke-linecap="round" stroke-linejoin="round" transform="translate(11.002225, 17.229604) scale(-1, 1) translate(-11.002225, -17.229604) "></path>
                    </g>
                    <g id="little-cube" transform="translate(160.160000, 277.892704)" stroke="#979797" stroke-opacity="0.7">
                        <use id="Rectangle-2" mask="url(#mask-4)" stroke-width="2" fill="#FFFFFF" xlink:href="#path-3"></use>
                        <path d="M20.7464878,22.5515021 L20.7704532,43.7996697" id="Line" stroke-linecap="round" stroke-linejoin="round"></path>
                        <path d="M40.4506525,11.8706154 L20.7303829,22.5391056" id="Line" stroke-linecap="round" stroke-linejoin="round"></path>
                        <path d="M20.7398059,11.8583572 L1.26464333,22.6008512" id="Line" stroke-linecap="round" stroke-linejoin="round" transform="translate(11.002225, 17.229604) scale(-1, 1) translate(-11.002225, -17.229604) "></path>
                    </g>
                    <g id="little-cube" transform="translate(130.900000, 293.896996)" stroke="#979797" stroke-opacity="0.7">
                        <use id="Rectangle-2" mask="url(#mask-6)" stroke-width="2" fill="#FFFFFF" xlink:href="#path-5"></use>
                        <path d="M20.7464878,22.5515021 L20.7704532,43.7996697" id="Line" stroke-linecap="round" stroke-linejoin="round"></path>
                        <path d="M40.4506525,11.8706154 L20.7303829,22.5391056" id="Line" stroke-linecap="round" stroke-linejoin="round"></path>
                        <path d="M20.7398059,11.8583572 L1.26464333,22.6008512" id="Line" stroke-linecap="round" stroke-linejoin="round" transform="translate(11.002225, 17.229604) scale(-1, 1) translate(-11.002225, -17.229604) "></path>
                    </g>
                    <g id="little-cube" transform="translate(317.240000, 58.197425)" stroke="#979797" stroke-opacity="0.7">
                        <use id="Rectangle-2" mask="url(#mask-8)" stroke-width="2" fill="#FFFFFF" xlink:href="#path-7"></use>
                        <path d="M20.7464878,22.5515021 L20.7704532,43.7996697" id="Line" stroke-linecap="round" stroke-linejoin="round"></path>
                        <path d="M40.4506525,11.8706154 L20.7303829,22.5391056" id="Line" stroke-linecap="round" stroke-linejoin="round"></path>
                        <path d="M20.7398059,11.8583572 L1.26464333,22.6008512" id="Line" stroke-linecap="round" stroke-linejoin="round" transform="translate(11.002225, 17.229604) scale(-1, 1) translate(-11.002225, -17.229604) "></path>
                    </g>
                    <g id="little-cube" transform="translate(317.240000, 27.643777)" stroke="#979797" stroke-opacity="0.7">
                        <use id="Rectangle-2" mask="url(#mask-10)" stroke-width="2" fill="#FFFFFF" xlink:href="#path-9"></use>
                        <path d="M20.7464878,22.5515021 L20.7704532,43.7996697" id="Line" stroke-linecap="round" stroke-linejoin="round"></path>
                        <path d="M40.4506525,11.8706154 L20.7303829,22.5391056" id="Line" stroke-linecap="round" stroke-linejoin="round"></path>
                        <path d="M20.7398059,11.8583572 L1.26464333,22.6008512" id="Line" stroke-linecap="round" stroke-linejoin="round" transform="translate(11.002225, 17.229604) scale(-1, 1) translate(-11.002225, -17.229604) "></path>
                    </g>
                    <g id="little-cube" transform="translate(343.420000, 74.201717)" stroke="#979797" stroke-opacity="0.7">
                        <use id="Rectangle-2" mask="url(#mask-12)" stroke-width="2" fill="#FFFFFF" xlink:href="#path-11"></use>
                        <path d="M20.7464878,22.5515021 L20.7704532,43.7996697" id="Line" stroke-linecap="round" stroke-linejoin="round"></path>
                        <path d="M40.4506525,11.8706154 L20.7303829,22.5391056" id="Line" stroke-linecap="round" stroke-linejoin="round"></path>
                        <path d="M20.7398059,11.8583572 L1.26464333,22.6008512" id="Line" stroke-linecap="round" stroke-linejoin="round" transform="translate(11.002225, 17.229604) scale(-1, 1) translate(-11.002225, -17.229604) "></path>
                    </g>
                    <g id="big-cube" transform="translate(146.300000, 84.386266)" stroke="#979797">
                        <use id="Rectangle-2" mask="url(#mask-14)" stroke-width="4" fill="#83D3FF" xlink:href="#path-13"></use>
                        <path d="M66.0814056,72.7467811 L66.081947,143.473985" id="Line" stroke-width="2" stroke-linecap="round" stroke-linejoin="round"></path>
                        <path d="M129.040543,37.1196452 L66.1557173,71.9510357" id="Line" stroke-width="2" stroke-linecap="round" stroke-linejoin="round"></path>
                        <path d="M65.9131321,37.0796241 L3.23108502,72.0420685" id="Line" stroke-width="2" stroke-linecap="round" stroke-linejoin="round" transform="translate(34.572109, 54.560846) scale(-1, 1) translate(-34.572109, -54.560846) "></path>
                    </g>
                    <g id="big-cube" transform="translate(73.920000, 128.034335)" stroke="#979797">
                        <use id="Rectangle-2" mask="url(#mask-16)" stroke-width="4" fill="#EAEAEA" xlink:href="#path-15"></use>
                        <path d="M66.0814056,72.7467811 L66.081947,143.473985" id="Line" stroke-width="2" stroke-linecap="round" stroke-linejoin="round"></path>
                        <path d="M129.040543,37.1196452 L66.1557173,71.9510357" id="Line" stroke-width="2" stroke-linecap="round" stroke-linejoin="round"></path>
                        <path d="M65.9131321,37.0796241 L3.23108502,72.0420685" id="Line" stroke-width="2" stroke-linecap="round" stroke-linejoin="round" transform="translate(34.572109, 54.560846) scale(-1, 1) translate(-34.572109, -54.560846) "></path>
                    </g>
                    <g id="server" transform="translate(0.000000, 130.944206)" stroke="#686868">
                        <use id="Rectangle-2" mask="url(#mask-18)" stroke-width="4" fill="#535353" xlink:href="#path-17"></use>
                        <path d="M66.0814056,72.7467811 L66.0814056,183.321888" id="Line" stroke-width="2" stroke-linecap="round" stroke-linejoin="round"></path>
                        <path d="M129.040543,37.1196452 L66.1557173,71.9510357" id="Line" stroke-width="2" stroke-linecap="round" stroke-linejoin="round"></path>
                        <g id="server-line" transform="translate(72.380000, 71.291845)" stroke-width="2" stroke-linecap="round" stroke-linejoin="round">
                            <path d="M29.8418914,10.9281541 L0,27.5567125" id="Line"></path>
                            <path d="M29.5295114,0.847552015 L0,16.9887546" id="Line"></path>
                        </g>
                        <g id="server-line" transform="translate(72.380000, 107.665236)" stroke-width="2" stroke-linecap="round" stroke-linejoin="round">
                            <path d="M29.8418914,10.9281541 L0,27.5567125" id="Line"></path>
                            <path d="M29.5295114,0.847552015 L0,16.9887546" id="Line"></path>
                        </g>
                        <g id="server-line" transform="translate(72.380000, 142.583691)" stroke-width="2" stroke-linecap="round" stroke-linejoin="round">
                            <path d="M29.8418914,10.9281541 L0,27.5567125" id="Line"></path>
                            <path d="M29.5295114,0.847552015 L0,16.9887546" id="Line"></path>
                        </g>
                        <path d="M129.104826,113.484979 L66.22,148.316369" id="Line" stroke-width="2" stroke-linecap="round" stroke-linejoin="round"></path>
                        <path d="M129.104826,78.5665236 L66.22,113.397914" id="Line" stroke-width="2" stroke-linecap="round" stroke-linejoin="round"></path>
                        <path d="M65.9131321,37.0796241 L3.23108502,72.0420685" id="Line" stroke-width="2" stroke-linecap="round" stroke-linejoin="round" transform="translate(34.572109, 54.560846) scale(-1, 1) translate(-34.572109, -54.560846) "></path>
                        <path d="M65.7620471,78.5665236 L3.08,113.528968" id="Line" stroke-width="2" stroke-linecap="round" stroke-linejoin="round" transform="translate(34.421024, 96.047746) scale(-1, 1) translate(-34.421024, -96.047746) "></path>
                        <path d="M65.7620471,113.484979 L3.08,148.447423" id="Line" stroke-width="2" stroke-linecap="round" stroke-linejoin="round" transform="translate(34.421024, 130.966201) scale(-1, 1) translate(-34.421024, -130.966201) "></path>
                        <use id="Rectangle" mask="url(#mask-20)" stroke-width="2" transform="translate(115.292570, 70.617439) rotate(-33.000000) translate(-115.292570, -70.617439) " xlink:href="#path-19"></use>
                        <use id="Rectangle" mask="url(#mask-22)" stroke-width="2" fill="#FF8783" transform="translate(114.729758, 104.808116) rotate(-33.000000) translate(-114.729758, -104.808116) " xlink:href="#path-21"></use>
                        <use id="Rectangle" mask="url(#mask-24)" stroke-width="2" transform="translate(114.729758, 139.726571) rotate(-33.000000) translate(-114.729758, -139.726571) " xlink:href="#path-23"></use>
                    </g>
                    <g id="big-cube" transform="translate(218.680000, 128.034335)" stroke="#979797">
                        <use id="Rectangle-2" mask="url(#mask-26)" stroke-width="4" fill="#EAEAEA" xlink:href="#path-25"></use>
                        <path d="M66.0814056,72.7467811 L66.081947,143.473985" id="Line" stroke-width="2" stroke-linecap="round" stroke-linejoin="round"></path>
                        <path d="M129.040543,37.1196452 L66.1557173,71.9510357" id="Line" stroke-width="2" stroke-linecap="round" stroke-linejoin="round"></path>
                        <path d="M65.9131321,37.0796241 L3.23108502,72.0420685" id="Line" stroke-width="2" stroke-linecap="round" stroke-linejoin="round" transform="translate(34.572109, 54.560846) scale(-1, 1) translate(-34.572109, -54.560846) "></path>
                    </g>
                    <g id="big-cube" transform="translate(146.300000, 0.000000)" stroke="#979797">
                        <use id="Rectangle-2" mask="url(#mask-28)" stroke-width="4" fill="#EAEAEA" xlink:href="#path-27"></use>
                        <path d="M66.0814056,72.7467811 L66.081947,143.473985" id="Line" stroke-width="2" stroke-linecap="round" stroke-linejoin="round"></path>
                        <path d="M129.040543,37.1196452 L66.1557173,71.9510357" id="Line" stroke-width="2" stroke-linecap="round" stroke-linejoin="round"></path>
                        <path d="M65.9131321,37.0796241 L3.23108502,72.0420685" id="Line" stroke-width="2" stroke-linecap="round" stroke-linejoin="round" transform="translate(34.572109, 54.560846) scale(-1, 1) translate(-34.572109, -54.560846) "></path>
                    </g>
                </g>
            </g>
        </g>
    </g>
</svg>