<?xml version="1.0" encoding="UTF-8" standalone="no"?>
<svg width="366px" height="352px" viewBox="0 0 366 352" version="1.1" xmlns="http://www.w3.org/2000/svg" xmlns:xlink="http://www.w3.org/1999/xlink">
    <!-- Generator: Sketch 40 (33762) - http://www.bohemiancoding.com/sketch -->
    <title>#2</title>
    <desc>Created with Sketch.</desc>
    <defs>
        <path d="M174.918552,49.0079329 C181.161345,52.8249646 186.202625,62.2920771 186.064855,70.097208 C186.064855,70.097208 187.879591,221.116659 137.023463,253.764974 C134.231559,255.557303 124.600033,262.01538 121.481636,263.049645 C113.441298,265.716349 110.966627,260.692628 100.541338,257.259492 C12.4200615,228.240405 3.37886654,16.2393848 3.37886654,16.2393848 C3.29183297,8.35186719 19.8748627,-0.287266866 26.1200611,0.00732992513 L174.918552,49.0079329 Z" id="path-1"></path>
        <mask id="mask-2" maskContentUnits="userSpaceOnUse" maskUnits="objectBoundingBox" x="0" y="0" width="182.694383" height="263.801252" fill="white">
            <use xlink:href="#path-1"></use>
        </mask>
        <path d="M159.949189,57.4518533 C166.191982,61.268885 171.233262,70.7359975 171.095492,78.5411283 C171.095492,78.5411283 173.693251,294.722499 85.5719747,265.703412 C-2.54930145,236.684326 0.0076928784,22.2004669 0.0076928784,22.2004669 C-0.0793406956,14.3129492 4.90549972,8.15665351 11.1506981,8.4512503 L159.949189,57.4518533 Z" id="path-3"></path>
        <mask id="mask-4" maskContentUnits="userSpaceOnUse" maskUnits="objectBoundingBox" x="0" y="0" width="171.103545" height="259.942689" fill="white">
            <use xlink:href="#path-3"></use>
        </mask>
        <path d="M141.314192,70.0653867 C146.368143,73.155524 150.449389,80.8197722 150.337855,87.1385373 C150.337855,87.1385373 152.440911,262.151528 81.1009614,238.658675 C9.76101179,215.165822 11.8310663,41.5270785 11.8310663,41.5270785 C11.7606069,35.1416159 15.796162,30.157691 20.8520595,30.3961864 C20.8520595,30.3961864 60.482641,43.4468724 80.2979317,49.9722154 C100.636685,56.6699392 141.314192,70.0653867 141.314192,70.0653867 Z" id="path-5"></path>
        <mask id="mask-6" maskContentUnits="userSpaceOnUse" maskUnits="objectBoundingBox" x="0" y="0" width="138.519536" height="210.440646" fill="white">
            <use xlink:href="#path-5"></use>
        </mask>
        <path d="M75.8161384,0.662070928 C76.3029096,0.396431761 77.1505203,0.16688372 77.7053765,0.155894561 C77.7053765,0.155894561 93.9757744,-0.56117426 103.713933,5.01651411 C113.452092,10.5942025 114.814659,21.142694 114.814659,21.142694 C114.913545,21.6801555 114.993708,22.5706519 114.993708,23.1240603 L114.993708,105.638262 C114.993708,106.195079 114.603945,106.847141 114.102967,107.105075 L40.0836765,145.214643 C39.5917339,145.467924 38.739291,145.724203 38.1962148,145.778732 C38.1962148,145.778732 19.5792187,148.113809 9.74358189,141.762488 C-0.0920548967,135.411167 0.564015501,125.806302 0.564015501,125.806302 C0.562412856,125.265887 0.561113656,124.380705 0.561113656,123.836677 L0.561113656,42.7211072 C0.561113656,42.1737285 0.952602323,41.5163484 1.44249096,41.2490081 L75.8161384,0.662070928 Z" id="path-7"></path>
        <mask id="mask-8" maskContentUnits="userSpaceOnUse" maskUnits="objectBoundingBox" x="0" y="0" width="114.438782" height="146.072095" fill="white">
            <use xlink:href="#path-7"></use>
        </mask>
        <path d="M46.6006584,0.564624557 C47.085982,0.30317091 47.9226649,0.078929753 48.4859927,0.0719402495 C48.4859927,0.0719402495 58.1754794,-0.36238427 64.2038634,3.04620307 C70.2322474,6.45479041 70.9917112,12.5356703 70.9917112,12.5356703 C71.099335,13.0659352 71.1865813,13.9423827 71.1865813,14.5045173 L71.1865813,64.1446795 C71.1865813,64.7017788 70.7809181,65.3595791 70.2911073,65.6085299 L25.1577675,88.5479639 C24.6632109,88.7993269 23.8213084,89.0505361 23.2679513,89.1013304 C23.2679513,89.1013304 12.1204687,90.4945498 6.03174117,86.6131871 C-0.0569863646,82.7318245 0.371798797,77.2433705 0.371798797,77.2433705 C0.358299453,76.7025935 0.347356073,75.825194 0.347356073,75.2725876 L0.347356073,26.4738359 C0.347356073,25.9261795 0.740658811,25.2703361 1.22611213,25.0088126 L46.6006584,0.564624557 Z" id="path-9"></path>
        <mask id="mask-10" maskContentUnits="userSpaceOnUse" maskUnits="objectBoundingBox" x="0" y="0" width="70.8392252" height="89.2906097" fill="white">
            <use xlink:href="#path-9"></use>
        </mask>
    </defs>
    <g id="Page-1" stroke="none" stroke-width="1" fill="none" fill-rule="evenodd">
        <g id="Artboard-2" transform="translate(-754.000000, -1795.000000)">
            <g id="section#2" transform="translate(2.000000, 1011.000000)">
                <g id="#2" transform="translate(751.000000, 784.000000)">
                    <g id="shiled" transform="translate(180.759239, 0.000000)" stroke="#979797" stroke-width="4">
                        <use id="Rectangle-3" mask="url(#mask-2)" fill="#B4B4B4" xlink:href="#path-1"></use>
                        <use id="Rectangle-3" mask="url(#mask-4)" fill="#B4B4B4" xlink:href="#path-3"></use>
                        <use id="Rectangle-3" mask="url(#mask-6)" fill="#E4E3E3" xlink:href="#path-5"></use>
                    </g>
                    <g id="lock" transform="translate(2.442663, 139.729167)">
                        <g id="little-cube" transform="translate(0.000000, 18.796104)" stroke="#979797">
                            <use id="Rectangle-2" mask="url(#mask-8)" stroke-width="4" fill="#FFFFFF" xlink:href="#path-7"></use>
                            <path d="M38.5880605,63.2102064 L38.6211786,141.505481" id="Line" stroke-width="2" stroke-linecap="round" stroke-linejoin="round"></path>
                            <path d="M112.212139,23.7522652 L38.8652956,63.3151399" id="Line" stroke-width="2" stroke-linecap="round" stroke-linejoin="round"></path>
                            <path d="M3.00475672,44.8340664 C3.00475672,44.8340664 2.0637783,52.5349374 14.0203843,58.4468376 C25.9769904,64.3587379 39.0736853,63.2336602 39.0736853,63.2336602" id="Line" stroke-width="2" stroke-linecap="round" stroke-linejoin="round"></path>
                        </g>
                        <g id="lock-head" transform="translate(23.591712, 0.000000)" stroke="#9B9B9B" stroke-linecap="round" fill="#9B9B9B" stroke-linejoin="round">
                            <path d="M53.9944363,37.1852984 C55.8646557,39.1563375 58.6155305,40.5818474 60.2128037,42.2931473 C60.5141531,42.1292652 58.891363,34.5222148 61.2285206,33.2512042 C61.2285206,20.3435259 62.2549094,12.6709101 58.1796351,6.95994751 C53.33494,0.170742715 42.4446133,-2.95503521 30.3148155,3.64148268 C8.57105953,15.4663356 1.93743771e-13,39.1249434 0,66.5489588 C2.07293737,68.786818 4.82568172,70.2189441 6.20471042,71.4545697 C9.23650376,63.3107285 5.7496834,63.4221227 7.4023488,62.5233578 C7.4023488,43.8468721 14.3100696,21.4629346 31.1963216,12.9750064 C42.1787537,7.45465205 53.2645157,4.06770214 53.9944363,37.1852984 Z" id="Oval"></path>
                            <path d="M60.4285395,42.3120126 C68.1378397,38.119483 59.9533237,42.5704481 67.6626239,38.3779185 C67.6626239,10.1255639 59.0820944,-3.37719863 36.7489188,8.76819693 C15.0051628,20.5930498 6.43410326,44.2516577 6.43410326,71.675673 C10.2245288,69.6143353 4.81681073,72.5552012 13.8364521,67.650072 C13.8364521,48.9735863 20.7441728,26.5896488 37.6304249,18.1017207 C48.612857,12.5813663 59.6986189,9.1944164 60.4285395,42.3120126 Z" id="Oval"></path>
                        </g>
                        <path d="M87.9327446,91.6545588 C87.9327446,84.5325525 82.1714523,81.7500044 75.064538,85.4395637 C67.9576238,89.1291229 62.1963315,97.8936284 62.1963315,105.015635 C62.1963315,110.69445 65.8592794,113.6143 70.9466454,112.694035 L65.6608487,126.032202 L84.9631584,116.011395 L79.6023781,108.050119 C84.470157,103.684352 87.9327446,97.175877 87.9327446,91.6545588 Z" id="Combined-Shape" stroke="#979797" stroke-linecap="round" stroke-linejoin="round" fill="#979797"></path>
                    </g>
                    <g id="lock" transform="translate(94.358424, 200.401042)">
                        <g id="little-cube" transform="translate(0.000000, 11.505952)" stroke="#979797">
                            <use id="Rectangle-2" mask="url(#mask-10)" stroke-width="4" fill="#FFC68A" xlink:href="#path-9"></use>
                            <path d="M23.887847,38.609015 L23.9083487,86.4561271" id="Line" stroke-width="2" stroke-linecap="round" stroke-linejoin="round"></path>
                            <path d="M69.4646575,14.4958288 L24.0594687,38.673141" id="Line" stroke-width="2" stroke-linecap="round" stroke-linejoin="round"></path>
                            <path d="M1.86008749,27.3791517 C1.86008749,27.3791517 1.27757704,32.0852395 8.67928554,35.6980674 C16.080994,39.3108954 24.1884719,38.6233479 24.1884719,38.6233479" id="Line" stroke-width="2" stroke-linecap="round" stroke-linejoin="round"></path>
                        </g>
                        <g id="lock-head" transform="translate(14.604393, 0.000000)" stroke="#9B9B9B" stroke-linecap="round" fill="#9B9B9B" stroke-linejoin="round">
                            <path d="M33.4251272,22.724349 C34.5828821,23.9288729 36.2858046,24.8000179 37.2745927,25.8458122 C37.4611424,25.745662 36.4565581,21.0969091 37.9033699,20.3201804 C37.9033699,12.4321547 38.5387535,7.74333396 36.0159646,4.25330125 C33.0168676,0.10434277 26.2752368,-1.80585485 18.7663144,2.22535052 C5.30589399,9.45164952 1.1993662e-13,23.9096877 0,40.6688081 C1.28324694,42.0363888 2.98732678,42.911577 3.84101121,43.6666815 C5.71783566,38.6898896 3.55932782,38.7579639 4.5824064,38.2087187 C4.5824064,26.7953107 8.85861449,13.1162378 19.3120086,7.92917058 C26.1106571,4.5556207 32.9732716,2.48581798 33.4251272,22.724349 Z" id="Oval"></path>
                            <path d="M37.4081435,25.857341 C42.1805675,23.2952396 37.1139623,26.0152738 41.8863862,23.4531724 C41.8863862,6.18784463 36.5746299,-2.06384361 22.7493307,5.35834257 C9.2889103,12.5846416 3.9830163,27.0426797 3.9830163,43.8018002 C6.32947022,42.5420938 2.98183521,44.3392896 8.56542271,41.3417107 C8.56542271,29.9283027 12.8416308,16.2492298 23.2950249,11.0621626 C30.0936734,7.68861274 36.9562879,5.61881002 37.4081435,25.857341 Z" id="Oval"></path>
                        </g>
                        <path d="M54.4345562,56.0111193 C54.4345562,51.6587821 50.8680419,49.958336 46.4685236,52.2130667 C42.0690052,54.4677973 38.5024909,59.823884 38.5024909,64.1762212 C38.5024909,67.6466085 40.7700301,69.4309611 43.9193519,68.8685766 L40.647192,77.0196792 L52.5962409,70.8958528 L49.2776626,66.0306285 C52.2910496,63.3626594 54.4345562,59.3852582 54.4345562,56.0111193 Z" id="Combined-Shape" stroke="#979797" stroke-linecap="round" stroke-linejoin="round" fill="#979797"></path>
                    </g>
                    <g id="Group-4" transform="translate(70.858337, 53.854644) scale(-1, 1) rotate(-7.000000) translate(-70.858337, -53.854644) translate(35.858337, 24.354644)" stroke="#979797">
                        <g id="Group-3" transform="translate(-0.000000, 8.354167)">
                            <path d="M34.8471467,2.79644605 C19.7946539,-2.71544206 1.43483346,1.91275973 0.524065322,7.0919704 C-0.386702817,12.2711811 12.7604044,38.0498341 32.5582369,46.1660818 C47.0277534,51.6992204 68.3525229,48.8538734 69.6251564,42.6975826 C70.8977898,36.5412918 57.5019471,10.3353881 34.8471467,2.79644605 Z" id="Oval-2"></path>
                            <path d="M34.8471467,4.09486612 C26.0481101,0.487644903 18.9150815,6.86457377 18.9150815,18.3381354 C18.9150815,29.811697 26.0481101,42.037087 34.8471467,45.6443083 C43.6461834,49.2515295 50.779212,42.8746006 50.779212,31.401039 C50.779212,19.9274774 43.6461834,7.70208734 34.8471467,4.09486612 Z" id="Oval-3"></path>
                            <path d="M33.6060026,12.9961642 C28.5170998,10.9099361 24.3917289,14.5980183 24.3917289,21.2337266 C24.3917289,27.8694348 28.5170998,34.9399613 33.6060026,37.0261894 C38.6949054,39.1124176 42.8202762,35.4243353 42.8202762,28.7886271 C42.8202762,22.1529189 38.6949054,15.0823924 33.6060026,12.9961642 Z" id="Oval-3"></path>
                        </g>
                        <path d="M62.9580503,20.2239583 L66.6346807,22.5201003" id="Line" stroke-linecap="round" stroke-linejoin="round" transform="translate(64.068699, 22.062500) scale(-1, 1) translate(-64.068699, -22.062500) "></path>
                        <path d="M51.5283596,9.19270833 L55.20499,14.2351255" id="Line" stroke-linecap="round" stroke-linejoin="round" transform="translate(53.758066, 11.950521) scale(-1, 1) translate(-53.758066, -11.950521) "></path>
                        <path d="M41.9460735,-1.26121336e-13 L45.6227039,7.74500526" id="Line" stroke-linecap="round" stroke-linejoin="round" transform="translate(44.038723, 4.596354) scale(-1, 1) translate(-44.038723, -4.596354) "></path>
                    </g>
                    <g id="Group-4" transform="translate(26.612673, 106.331677) scale(-1, 1) rotate(-7.000000) translate(-26.612673, -106.331677) translate(2.612673, 87.331677)" stroke="#979797">
                        <g id="Group-3" transform="translate(-0.000000, 4.826172)">
                            <path d="M23.8980978,2.49141772 C13.8631026,-1.12575885 1.62322231,1.91149857 1.01604355,5.31035557 C0.408864789,8.70921257 9.17360295,25.6264536 22.3721579,30.9527412 C32.0185023,34.5838634 46.2350153,32.7166044 47.0834376,28.6765386 C47.9318599,24.6364728 39.0012981,7.43884843 23.8980978,2.49141772 Z" id="Oval-2"></path>
                            <path d="M23.8980978,3.34350589 C18.0320734,0.976266968 13.276721,5.16112654 13.276721,12.6906514 C13.276721,20.2201762 18.0320734,28.2430884 23.8980978,30.6103273 C29.7641223,32.9775662 34.5194746,28.7927067 34.5194746,21.2631818 C34.5194746,13.733657 29.7641223,5.71074481 23.8980978,3.34350589 Z" id="Oval-3"></path>
                            <path d="M23.0706684,9.18498278 C19.6780665,7.81589554 16.9278193,10.2361995 16.9278193,14.5908831 C16.9278193,18.9455666 19.6780665,23.5855996 23.0706684,24.9546868 C26.4632702,26.3237741 29.2135175,23.9034701 29.2135175,19.5487865 C29.2135175,15.194103 26.4632702,10.55407 23.0706684,9.18498278 Z" id="Oval-3"></path>
                        </g>
                        <path d="M42.6387002,13.2719727 L45.0897871,14.7788158" id="Line" stroke-linecap="round" stroke-linejoin="round" transform="translate(43.379133, 14.478516) scale(-1, 1) translate(-43.379133, -14.478516) "></path>
                        <path d="M35.0189064,6.03271484 L37.4699934,9.34180113" id="Line" stroke-linecap="round" stroke-linejoin="round" transform="translate(36.505377, 7.842529) scale(-1, 1) translate(-36.505377, -7.842529) "></path>
                        <path d="M28.6307157,-2.05613304e-13 L31.0818026,5.0826597" id="Line" stroke-linecap="round" stroke-linejoin="round" transform="translate(30.025815, 3.016357) scale(-1, 1) translate(-30.025815, -3.016357) "></path>
                    </g>
                    <g id="Group-4" transform="translate(94.630336, 100.816052) scale(-1, 1) rotate(-7.000000) translate(-94.630336, -100.816052) translate(70.630336, 81.816052)" stroke="#979797">
                        <g id="Group-3" transform="translate(-0.000000, 4.826172)">
                            <path d="M23.8980978,2.49141772 C13.8631026,-1.12575885 1.62322231,1.91149857 1.01604355,5.31035557 C0.408864789,8.70921257 9.17360295,25.6264536 22.3721579,30.9527412 C32.0185023,34.5838634 46.2350153,32.7166044 47.0834376,28.6765386 C47.9318599,24.6364728 39.0012981,7.43884843 23.8980978,2.49141772 Z" id="Oval-2"></path>
                            <path d="M23.8980978,3.34350589 C18.0320734,0.976266968 13.276721,5.16112654 13.276721,12.6906514 C13.276721,20.2201762 18.0320734,28.2430884 23.8980978,30.6103273 C29.7641223,32.9775662 34.5194746,28.7927067 34.5194746,21.2631818 C34.5194746,13.733657 29.7641223,5.71074481 23.8980978,3.34350589 Z" id="Oval-3"></path>
                            <path d="M23.0706684,9.18498278 C19.6780665,7.81589554 16.9278193,10.2361995 16.9278193,14.5908831 C16.9278193,18.9455666 19.6780665,23.5855996 23.0706684,24.9546868 C26.4632702,26.3237741 29.2135175,23.9034701 29.2135175,19.5487865 C29.2135175,15.194103 26.4632702,10.55407 23.0706684,9.18498278 Z" id="Oval-3"></path>
                        </g>
                        <path d="M42.6387002,13.2719727 L45.0897871,14.7788158" id="Line" stroke-linecap="round" stroke-linejoin="round" transform="translate(43.379133, 14.478516) scale(-1, 1) translate(-43.379133, -14.478516) "></path>
                        <path d="M35.0189064,6.03271484 L37.4699934,9.34180113" id="Line" stroke-linecap="round" stroke-linejoin="round" transform="translate(36.505377, 7.842529) scale(-1, 1) translate(-36.505377, -7.842529) "></path>
                        <path d="M28.6307157,-4.47197834e-13 L31.0818026,5.0826597" id="Line" stroke-linecap="round" stroke-linejoin="round" transform="translate(30.025815, 3.016357) scale(-1, 1) translate(-30.025815, -3.016357) "></path>
                    </g>
                    <g id="key" transform="translate(127.448098, 288.651042)" stroke="#979797">
                        <path d="M44.0063829,57.8331395 C32.4057101,63.310081 15.6541376,62.0671574 6.59069865,55.056992 C-2.47274031,48.0468266 -0.415905846,37.9240264 11.184767,32.447085 C21.0758686,27.777271 34.7115754,27.9926701 44.1336525,32.5028018 L101.219164,5.55143389 L109.154239,8.84506409 L109.057555,11.6140797 L100.108111,15.8393158 L108.087631,18.6581362 L107.973635,21.9229474 L99.0862478,26.118885 L91.2207238,20.0352533 L84.5012698,23.2076604 L92.569374,23.4894395 L92.3667938,29.291292 L83.3320649,33.556793 L75.4665409,27.4731613 L51.9456776,38.5778958 C56.8272594,45.1787808 53.8589078,53.1815384 44.0063829,57.8331395 Z" id="Combined-Shape" stroke-width="2" stroke-linecap="round" stroke-linejoin="round" fill="#979797" transform="translate(55.046529, 33.399973) rotate(-2.000000) translate(-55.046529, -33.399973) "></path>
                        <path d="M44.0064124,54.1516182 C32.4057395,59.6285596 15.6541671,58.385636 6.5907281,51.3754707 C-2.47271086,44.3653053 -0.415876397,34.2425051 11.1847965,28.7655636 C21.075898,24.0957497 34.7116049,24.3111488 44.133682,28.8212805 L101.219193,1.86991256 L109.057584,7.93255838 L100.10814,12.1577944 L107.973664,18.2414261 L99.0862773,22.4373636 L91.2207533,16.353732 L84.5012992,19.526139 L92.3668232,25.6097707 L83.3320943,29.8752716 L75.4665703,23.79164 L51.945707,34.8963744 C56.8272888,41.4972594 53.8589373,49.5000171 44.0064124,54.1516182 Z" id="Combined-Shape" stroke-width="2" stroke-linecap="round" stroke-linejoin="round" fill="#E4E3E3" transform="translate(54.998217, 29.718451) rotate(-2.000000) translate(-54.998217, -29.718451) "></path>
                        <path d="M38.8403152,36.8915156 C33.6195952,33.3229312 24.3435903,32.8574611 18.1217784,35.8518589 C11.8999665,38.8462567 11.0884212,44.1666049 16.3091413,47.7351892 C21.5298613,51.3037735 30.8058662,51.7692437 37.0276781,48.7748459 C43.24949,45.7804481 44.0610353,40.4600999 38.8403152,36.8915156 Z" id="Oval-5" fill="#979797"></path>
                    </g>
                    <g id="key" transform="translate(293.881793, 312.666667) scale(-1, 1) translate(-293.881793, -312.666667) translate(263.381793, 294.166667)" stroke="#979797">
                        <path d="M24.4374648,33.1501699 C18.0570947,36.1929152 8.84372988,35.5024021 3.85883845,31.6078657 C-1.12605298,27.7133294 0.00520597393,22.0895515 6.38557605,19.0468063 C11.8256819,16.4524652 19.3253207,16.5721314 24.5074631,19.0777601 L55.9044942,4.1047779 L60.3121299,4.68066881 L60.2156095,7.47291447 L55.2934152,9.82026783 L59.7140638,10.4630729 L59.6194534,13.2000632 L54.7313905,15.5311396 L50.4053523,12.1513443 L46.7096526,13.9137926 L51.1471099,14.0703366 L51.0356908,17.293588 L46.0665899,19.6633107 L41.7405517,16.2835154 L28.8040769,22.4528123 C31.4889468,26.1199706 29.8563535,30.5659471 24.4374648,33.1501699 Z" id="Combined-Shape" stroke-linecap="round" stroke-linejoin="round" fill="#979797" transform="translate(30.531217, 19.576188) rotate(-2.000000) translate(-30.531217, -19.576188) "></path>
                        <path d="M24.4374942,30.0842323 C18.0571241,33.1269776 8.84375928,32.4364645 3.85886785,28.5419281 C-1.12602358,24.6473918 0.00523537274,19.0236139 6.38560545,15.9808687 C11.8257113,13.3865276 19.3253501,13.5061938 24.5074925,16.0118225 L55.9045236,1.03884031 L60.2156389,4.40697688 L55.2934446,6.75433024 L59.6194828,10.1341256 L54.7314199,12.465202 L50.4053817,9.08540666 L46.709682,10.847855 L51.0357202,14.2276504 L46.0666193,16.5973731 L41.7405811,13.2175778 L28.8041063,19.3868747 C31.4889762,23.054033 29.8563829,27.5000095 24.4374942,30.0842323 Z" id="Combined-Shape" stroke-linecap="round" stroke-linejoin="round" fill="#E4E3E3" transform="translate(30.482987, 16.510251) rotate(-2.000000) translate(-30.482987, -16.510251) "></path>
                        <path d="M20.7973972,20.0273601 C17.9525769,18.0828044 12.8979931,17.8291653 9.50766837,19.4608412 C6.11734359,21.0925172 5.67512482,23.9916258 8.51994509,25.9361816 C11.3647654,27.8807373 16.4193491,28.1343764 19.8096739,26.5027004 C23.1999987,24.8710244 23.6422174,21.9719158 20.7973972,20.0273601 Z" id="Oval-5" fill="#979797"></path>
                    </g>
                </g>
            </g>
        </g>
    </g>
</svg>