<?xml version="1.0" encoding="UTF-8" standalone="no"?>
<svg width="404px" height="257px" viewBox="0 0 404 257" version="1.1" xmlns="http://www.w3.org/2000/svg" xmlns:xlink="http://www.w3.org/1999/xlink">
    <!-- Generator: Sketch 40 (33762) - http://www.bohemiancoding.com/sketch -->
    <title>#3</title>
    <desc>Created with Sketch.</desc>
    <defs>
        <linearGradient x1="-9.38678853%" y1="46.0392686%" x2="100%" y2="50%" id="linearGradient-1">
            <stop stop-color="#FFFFFF" stop-opacity="0.5" offset="0%"></stop>
            <stop stop-color="#7F7F7F" stop-opacity="0.6" offset="60.1017697%"></stop>
            <stop stop-color="#7F7F7F" stop-opacity="0.8" offset="100%"></stop>
        </linearGradient>
        <path d="M0.199921665,109.430399 C1.65069574,126.744356 6.694694,141.79086 11.7475766,153.079938 C13.3804775,156.728142 16.945679,153.82013 24.62838,147.777326 C23.2967289,132.785576 23.6674854,122.209255 24.7727718,114.19201 C25.0372844,114.305554 25.2959516,114.40959 25.54888,114.504322 C26.7401269,129.544856 27.8236623,143.956911 31.786788,154.863297 C36.401079,167.561668 66.6412019,179.464485 73.3378835,171.216232 C78.6433111,164.681577 83.4502927,154.887482 87.2343656,142.795877 C87.4913102,141.974838 87.2343656,139.487081 87.9908866,140.301281 C87.6962533,148.297518 85.9305559,160.929607 82.2807864,172.525112 C88.2359771,184.422097 90.9803176,190.038533 93.1583011,188.026184 C99.8978982,181.799128 107.324234,172.105621 111.861963,157.362279 C116.06658,143.701237 116.407843,114.507493 94.9562373,101.074858 C99.5568987,47.5845695 87.3215495,9.16205779 68.8395107,1.22848547 C50.3612036,-6.70348505 31.6551671,24.5891453 26.3333012,71.5880208 C3.96505952,66.1001438 -1.14756489,93.3491042 0.199921665,109.430399 Z" id="path-2"></path>
        <path d="M81.0375049,157.881311 C80.6864748,161.526676 77.4340325,167.789407 76.198499,168.815682 C42.1162097,165.782581 34.1214775,157.180059 29.0261491,146.657373 C27.4318793,144.006688 27.8958101,134.794646 27.560555,131.032314 C42.841227,150.698421 44.3410227,154.615563 81.0375049,157.881311 Z" id="path-3"></path>
        <mask id="mask-4" maskContentUnits="userSpaceOnUse" maskUnits="objectBoundingBox" x="0" y="0" width="53.4769499" height="37.7833682" fill="white">
            <use xlink:href="#path-3"></use>
        </mask>
        <path d="M86.7727208,141.45149 C86.3786502,145.543819 85.125493,152.365027 83.7780747,153.349362 C32.5794154,147.688768 37.5344724,138.462034 26.8964636,127.846732 C25.3965616,124.081592 26.7994105,117.662574 26.4230492,113.438935 C43.8143524,132.267021 41.0610975,137.383453 86.7727208,141.45149 Z" id="path-5"></path>
        <mask id="mask-6" maskContentUnits="userSpaceOnUse" maskUnits="objectBoundingBox" x="0" y="0" width="60.5861768" height="39.9104267" fill="white">
            <use xlink:href="#path-5"></use>
        </mask>
        <path d="M92.1926418,38.6918059 C92.8163511,43.44661 94.1598679,49.3142717 94.0194749,50.7722202 C51.5979046,58.6474751 34.9550552,44.0607448 36.2878136,28.5652272 C39.4329172,18.1485744 41.3353031,20.9229426 40.9589418,16.6993044 C45.8578484,34.568311 52.9174774,44.421749 92.1926418,38.6918059 Z" id="path-7"></path>
        <mask id="mask-8" maskContentUnits="userSpaceOnUse" maskUnits="objectBoundingBox" x="0" y="0" width="57.8155875" height="36.2775786" fill="white">
            <use xlink:href="#path-7"></use>
        </mask>
        <path d="M92.1926418,38.6918059 C92.8163511,43.44661 94.1598679,49.3142717 94.0194749,50.7722202 C51.5979046,58.6474751 34.9550552,44.0607448 36.2878136,28.5652272 C39.4329172,18.1485744 41.3353031,20.9229426 40.9589418,16.6993044 C45.8578484,34.568311 52.9174774,44.421749 92.1926418,38.6918059 Z" id="path-9"></path>
        <mask id="mask-10" maskContentUnits="userSpaceOnUse" maskUnits="objectBoundingBox" x="0" y="0" width="57.8155875" height="36.2775786" fill="white">
            <use xlink:href="#path-9"></use>
        </mask>
    </defs>
    <g id="Page-1" stroke="none" stroke-width="1" fill="none" fill-rule="evenodd">
        <g id="Artboard-2" transform="translate(-232.000000, -2248.000000)">
            <g id="section#2" transform="translate(2.000000, 1011.000000)">
                <g id="#3" transform="translate(231.000000, 1237.000000)">
                    <g id="Group-3" transform="translate(0.000000, 47.264368)" stroke-linecap="round" stroke="#979797" stroke-linejoin="round">
                        <g id="Group">
                            <path d="M3.27381152,175.792436 C12.4966463,182.836942 27.7297751,194.980888 30.8496046,193.548446 C56.681508,181.687951 76.3826155,172.021929 118.67947,152.601694 C166.084697,130.835995 171.38658,126.730523 201.040745,113.11507 C218.414057,36.4679305 164.343696,-19.412712 96.6236602,8.02619066 C19.3813064,43.4913481 -8.43721697,127.489355 3.27381152,175.792436 Z" id="Oval-4" stroke-width="2" fill="#D8D8D8"></path>
                            <path d="M111.56051,16.2631482 C34.3181567,51.7283056 19.3649289,144.672589 31.0759574,192.975671 C65.874776,176.998095 69.5054868,175.331085 116.910714,153.565386 C164.315941,131.799687 173.091305,127.770554 202.74547,114.155101 C212.14665,56.1313331 188.802864,-19.2020093 111.56051,16.2631482" id="Oval-4" stroke-width="3" fill="#D8D8D8"></path>
                            <path d="M107.218944,138.085473 C107.521032,145.837943 113.075265,149.684823 119.624671,146.67772 C126.174078,143.670617 131.23853,134.948259 130.936443,127.195789 C130.634355,119.443319 125.080122,115.596438 118.530716,118.603542 C111.981309,121.610645 106.916857,130.333003 107.218944,138.085473 Z" id="Oval-6" stroke-width="2" fill="#979797"></path>
                            <path d="M127.483509,116.640377 L148.603532,81.6304078" id="Line" stroke-width="4"></path>
                        </g>
                    </g>
                    <g id="Group-4" transform="translate(47.294118, 80.758621)" stroke-linecap="round" stroke-linejoin="round">
                        <path d="M140.45894,68.6085648 C139.505479,44.0889946 133.40165,27.6872799 125.227306,15.9447519 C113.847177,-0.40291739 105.411554,15.5968783 115.742634,26.1081208 C122.290328,32.7699992 127.077472,45.9614205 128.968422,69.4115546 C130.183459,86.7764572 138.606482,80.7875825 139.682719,77.9441543 C140.758956,75.100726 140.617642,70.8766857 140.45894,68.6085648 Z" id="Oval" fill-opacity="0.5" fill="#FB8B8B" transform="translate(125.819502, 45.113356) rotate(4.000000) translate(-125.819502, -45.113356) "></path>
                        <path d="M126.699807,43.5298854 C127.547006,47.8299191 129.216698,46.4303722 134.063631,44.6017318 C138.910565,42.7730914 139.307035,44.1101141 137.928733,38.5882191 C130.323083,0.50158587 106.625734,-2.88291467 79.0426029,9.54279963 C69.3217031,17.9757493 56.425243,20.9986407 59.6972557,26.8404406 C62.9692684,32.6822405 66.406245,32.125423 75.3665686,27.4186973 C115.561243,0.831842621 124.287038,35.2704856 126.699807,43.5298854 Z" id="Oval" fill-opacity="0.8" fill="#FFFC9D" transform="translate(98.898911, 24.725500) rotate(4.000000) translate(-98.898911, -24.725500) "></path>
                        <path d="M77.7865938,11.889533 C75.8011443,3.44998153 75.1770842,5.9130307 73.3700705,6.80460949 C28.6577759,31.1020972 9.61176482,71.684457 4.97838807,125.800088 C4.07534788,145.001992 15.4118122,150.588181 17.3078427,124.938471 C20.6257811,84.6245053 37.4141079,41.0890959 72.7380301,23.3467689 C80.7701403,18.8816614 79.7720433,20.3290845 77.7865938,11.889533 Z" id="Oval" fill-opacity="0.9" fill="#D1FF98" transform="translate(42.054615, 74.004363) rotate(4.000000) translate(-42.054615, -74.004363) "></path>
                    </g>
                    <path d="M374.353633,84.4469303 C390.615029,86.8145272 389.831262,99.761053 390.526841,103.68424 C396.677675,107.274299 400.950349,111.495011 401.608464,115.206897 C379.214665,109.689206 390.186832,112.392679 376.097535,108.921165 C362.008237,105.449651 374.475834,108.521588 350.586605,102.635433 C350.070781,99.7260977 351.862437,97.619847 355.25255,96.4846382 C355.786925,90.426193 360.023811,86.9007021 366.059031,88.0775511 C367.893633,84.9985257 370.659799,83.9091224 374.353633,84.4469303 Z" id="Combined-Shape" stroke="#979797" stroke-linecap="round" stroke-linejoin="round"></path>
                    <path d="M352.375714,31.2622653 C358.268909,32.7132077 364.422405,40.2964438 367.83532,49.5835127 C373.70381,53.0026169 371.993424,55.3582137 372.631112,58.8933432 C366.404545,57.592724 367.537101,57.8772637 354.108518,54.5710601 C340.679935,51.2648565 352.562866,54.1905107 329.793917,48.584649 C329.294104,45.8138533 330.994251,43.8079002 334.219593,42.726749 C334.710712,36.9568012 338.735479,33.5991909 344.486766,34.7199994 C346.224955,31.7875943 348.959051,30.4210607 352.375714,31.2622653 Z" id="Combined-Shape" stroke="#979797" stroke-linecap="round" stroke-linejoin="round"></path>
                    <path d="M136.907075,5.17976953 C139.174229,2.24736438 142.154829,0.880830819 145.419751,1.72203541 C151.051216,3.17297783 155.836801,10.7562139 157.574457,20.0432829 C165.227574,17.9524115 166.182706,27.4821119 166.182706,31.0172414 C145.786977,25.762298 155.78016,28.3370338 142.947971,25.0308302 C130.115781,21.7246266 141.470965,24.6502808 119.713235,19.0444191 C119.713235,16.2736234 121.775229,14.2676703 125.195596,13.1865191 C126.727533,7.41657136 131.357966,4.05896099 136.907075,5.17976953 Z" id="Combined-Shape" stroke="#979797" stroke-linecap="round" stroke-linejoin="round" transform="translate(142.947971, 16.247126) scale(-1, 1) translate(-142.947971, -16.247126) "></path>
                    <path d="M73.1989401,7.03477189 C75.4660943,4.10236674 81.8234205,-0.141433698 84.7148148,1.06483702 C90.1775326,3.34384696 94.3276365,7.16939599 96.0652927,16.4564649 C102.337694,16.4564649 102.631235,27.4821119 102.631235,31.0172414 C82.2355066,25.762298 92.2286899,28.3370338 79.3964999,25.0308302 C66.56431,21.7246266 77.9194941,24.6502808 56.1617647,19.0444191 C56.1617647,16.2736234 58.223758,14.2676703 61.6441251,13.1865191 C63.1760627,7.41657136 67.6498309,5.91396335 73.1989401,7.03477189 Z" id="Combined-Shape" stroke="#979797" stroke-linecap="round" stroke-linejoin="round" transform="translate(79.396500, 15.935789) scale(-1, 1) translate(-79.396500, -15.935789) "></path>
                    <g id="Group-6" transform="translate(242.382353, 197.919540)" stroke="#979797" stroke-width="2" stroke-linecap="round" stroke-linejoin="round">
                        <path d="M25.9678617,0 C25.9678617,0 20.2380443,36.5742605 0,48.2870581" id="Line"></path>
                        <path d="M28.316017,16.2471264 C28.316017,16.2471264 27.200582,40.5997448 14.7794118,49.6086043" id="Line"></path>
                        <path d="M35.4996409,23.6321839 C35.4996409,23.6321839 34.3866819,47.9849054 45.9377975,57.992569" id="Line"></path>
                        <path d="M39.9044118,5.90804598 C39.9044118,5.90804598 45.6342291,42.4823065 65.8722735,54.1951041" id="Line"></path>
                    </g>
                    <g id="rocket" transform="translate(281.302010, 115.420173) rotate(-5.000000) translate(-281.302010, -115.420173) translate(223.802010, 20.920173)">
                        <g id="Combined-Shape">
                            <use fill="#FFFFFF" xlink:href="#path-2"></use>
                            <use stroke="#979797" stroke-width="2" fill="url(#linearGradient-1)" xlink:href="#path-2"></use>
                        </g>
                        <use id="Rectangle-4" stroke="#979797" mask="url(#mask-4)" stroke-width="4" stroke-linecap="round" stroke-linejoin="round" fill="#89D6FD" xlink:href="#path-3"></use>
                        <use id="Rectangle-4" stroke="#979797" mask="url(#mask-6)" stroke-width="4" stroke-linecap="round" stroke-linejoin="round" fill="#89D6FC" xlink:href="#path-5"></use>
                        <use id="Rectangle-4" stroke="#979797" mask="url(#mask-8)" stroke-width="4" stroke-linecap="round" stroke-linejoin="round" xlink:href="#path-7"></use>
                        <use id="Rectangle-4" stroke="#979797" mask="url(#mask-10)" stroke-width="4" stroke-linecap="round" stroke-linejoin="round" xlink:href="#path-9"></use>
                    </g>
                </g>
            </g>
        </g>
    </g>
</svg>