<?xml version="1.0" encoding="UTF-8" standalone="no"?>
<svg width="249px" height="49px" viewBox="0 0 249 49" version="1.1" xmlns="http://www.w3.org/2000/svg" xmlns:xlink="http://www.w3.org/1999/xlink">
    <!-- Generator: Sketch 39.1 (31720) - http://www.bohemiancoding.com/sketch -->
    <title>facebook</title>
    <desc>Created with Sketch.</desc>
    <defs></defs>
    <g id="Page-1" stroke="none" stroke-width="1" fill="none" fill-rule="evenodd">
        <g id="Artboard-4" transform="translate(-516.000000, -2829.000000)" fill="#BBBBBB">
            <g id="section4" transform="translate(0.000000, 2600.000000)">
                <g id="facebook" transform="translate(515.000000, 229.000000)">
                    <path d="M206.148649,16.9763514 C202.719595,16.0641892 199.256757,16.0641892 195.844595,16.9763514 C190.726351,18.3445946 187.297297,21.5709459 186.199324,26.722973 C185.591216,29.527027 185.472973,32.5168919 185.641892,35.4054054 C185.996622,41.9932432 190.084459,46.6891892 196.402027,48.1587838 L196.672297,48.1587838 C196.908784,48.1587838 197.162162,48.3277027 197.398649,48.3277027 L197.652027,48.3277027 C197.956081,48.3277027 198.327703,48.4966216 198.716216,48.4966216 C199.949324,48.6655405 201.537162,48.7162162 202.85473,48.4966216 L203.057432,48.4966216 C209.594595,48.1587838 214.543919,44.0371622 215.996622,37.7195946 C216.790541,34.2567568 216.790541,30.777027 215.996622,27.2972973 C214.780405,21.8412162 211.469595,18.3445946 206.047297,16.8918919 L206.148649,16.9763514 Z M206.570946,36.0304054 C206.570946,36.2331081 206.570946,36.4358108 206.402027,36.6385135 C205.743243,39.5439189 203.631757,41.1148649 200.810811,40.9966216 C197.787162,40.8277027 195.709459,39.0878378 195.405405,36.0641892 C195.202703,33.8513514 195.168919,31.6047297 195.405405,29.3918919 C195.692568,25.8952703 197.871622,23.9864865 201.148649,24.0540541 C203.834459,24.0540541 205.760135,25.625 206.435811,28.2263514 C207.077703,30.8108108 206.621622,35.4391892 206.60473,36.0304054 L206.570946,36.0304054 Z M219.712838,1.55405405 L219.712838,48.0405405 L229.577703,48.0405405 L229.577703,33.8175676 L238.665541,48.0574324 L249.121622,48.0574324 L239.256757,32.5844595 L249.121622,17.1790541 L238.665541,17.1790541 L229.577703,31.3851351 L229.577703,0.35472973 L219.712838,1.55405405 Z M114.695946,33.597973 C114.695946,31.4358108 114.695946,29.2736486 114.375,27.1452703 C113.530405,21.3344595 110,17.652027 104.273649,16.6891892 C102.094595,16.3175676 99.7804054,16.3682432 97.5506757,16.5202703 C91.4695946,17.0945946 86.8581081,20.8783784 85.9121622,26.5878378 C85.3378378,30.0506757 85.2702703,33.7162162 85.7263514,37.1790541 C86.4189189,42.3986486 88.9695946,45.7263514 93.3614865,47.3310811 C95.3716216,47.9391892 105.202703,50.5067568 113.851351,46.1486486 L113.496622,44.8817568 C113.091216,43.1756757 112.618243,41.5033784 112.162162,39.8141892 L112.162162,39.6452703 C112.162162,39.6452703 111.976351,39.6452703 111.655405,39.8141892 C111.283784,39.9831081 110.89527,40.0337838 110.523649,40.152027 L110.320946,40.152027 C109.003378,40.5236486 107.128378,40.9797297 105.152027,41.2331081 C103.496622,41.402027 101.807432,41.402027 100.118243,41.2331081 C97.3648649,40.777027 95.2702703,39.3074324 95.3716216,35.8277027 L114.712838,35.8277027 L114.712838,35.4898649 L114.695946,33.597973 Z M105.827703,29.3581081 L95.1689189,29.3581081 C95.1689189,27.2466216 95.4898649,25.2702703 97.3648649,24.0709459 C99.3581081,22.8040541 101.570946,22.7533784 103.631757,23.8851351 C105.726351,25.0337838 105.878378,27.1114865 105.827703,29.3581081 L105.827703,29.3581081 Z M84.3412162,45.7939189 C83.9189189,44.2398649 83.4290541,42.6858108 82.9560811,41.1993243 L82.5168919,39.5439189 C82.5168919,39.5439189 70.9797297,45.0844595 69.1891892,34.5608108 C69.0202703,32.8209459 69.0202703,31.0304054 69.3581081,29.3243243 C69.8141892,26.097973 71.7736486,24.3581081 74.9155405,24.0709459 C75.9797297,23.902027 77.0777027,24.0709459 78.125,24.2398649 C79.5608108,24.4763514 80.9459459,24.9155405 82.5168919,25.3040541 C83.0574324,23.6486486 83.6148649,21.9932432 84.1385135,20.3378378 C84.3074324,20.0844595 84.3074324,19.847973 84.3412162,19.6621622 L84.5945946,18.6655405 C84.5945946,18.4966216 84.375,18.3952703 84.1554054,18.2601351 C83.8851351,18.0405405 83.4459459,17.8547297 82.7364865,17.6013514 C82.4493243,17.4324324 82.1790541,17.3986486 81.8918919,17.3141892 C81.6385135,17.1452703 81.4695946,17.1452703 81.4695946,17.1452703 C78.4459459,16.2837838 75.3378378,16.2162162 72.1790541,16.5371622 C65.5236486,17.2466216 60.9966216,21.1655405 59.7466216,27.652027 C59.0878378,31.0641892 59.1216216,34.527027 59.9155405,37.9391892 C61.0472973,43.0574324 64.1554054,46.3851351 69.2060811,47.8547297 C72.5,48.8175676 75.8783784,48.8682432 79.2398649,48.3445946 C80.6587838,48.125 82.6858108,47.3986486 84.1385135,46.875 L84.6959459,46.6722973 L84.4256757,45.7939189 L84.3412162,45.7939189 Z M47.0439189,20.7939189 C46.875,20.625 46.8074324,20.5405405 46.722973,20.4391892 L46.4864865,20.2027027 C44.2736486,17.9391892 43.4290541,17.3817568 41.6891892,16.875 C35,14.8986486 28.4797297,18.4121622 26.4189189,25.1351351 C25.152027,29.2736486 25.1351351,33.5304054 25.8783784,37.7195946 C27.4831081,46.7905405 34.222973,49.8310811 41.4189189,48.3277027 C43.6317568,47.8716216 45.2702703,46.4864865 46.7905405,44.5777027 C46.7905405,44.5777027 46.9594595,44.4087838 47.0945946,44.0878378 L47.0945946,48.0743243 L56.3006757,48.0743243 L56.3006757,16.8412162 L47.0945946,16.8412162 L47.0945946,20.7939189 L47.0439189,20.7939189 Z M46.2331081,36.4864865 C45.9290541,39.375 43.597973,41.097973 40.8277027,40.9966216 C38.0067568,40.8277027 36.1317568,39.375 35.5236486,36.6554054 C34.7972973,32.8040541 35.6925676,28.2094595 35.7263514,27.8378378 C36.4695946,25.2533784 38.3445946,23.9695946 41.1148649,24.0371622 C43.8344595,24.0371622 45.9121622,25.7094595 46.2331081,28.5135135 C46.5033784,31.1486486 46.5033784,33.8682432 46.2331081,36.4864865 L46.2331081,36.4864865 Z M24.5439189,16.8243243 L17.5,16.8243243 L17.5,12.1452703 C18.0067568,7.71959459 25.3209459,8.56418919 25.3209459,8.56418919 L25.3209459,0.996621622 C25.0675676,0.996621622 10.7939189,-2.44932432 7.95608108,8.41216216 C7.51689189,9.76351351 7.53378378,15.9966216 7.55067568,16.7736486 L1.4527027,16.7736486 L1.4527027,25.1013514 L7.9222973,25.1013514 L7.9222973,47.7364865 L17.347973,47.7364865 L17.347973,25.1013514 L24.5608108,25.1013514 L25.3716216,16.7736486 L24.5608108,16.7736486 L24.5439189,16.8243243 Z M172.533784,16.9763514 C169.10473,16.0641892 165.641892,16.0641892 162.22973,16.9763514 C157.111486,18.3445946 153.682432,21.5709459 152.567568,26.722973 C151.959459,29.527027 151.841216,32.5168919 152.010135,35.4054054 C152.381757,41.9932432 156.452703,46.6891892 162.787162,48.1587838 L163.057432,48.1587838 C163.293919,48.1587838 163.547297,48.3277027 163.783784,48.3277027 L164.037162,48.3277027 C164.341216,48.3277027 164.712838,48.4966216 165.101351,48.4966216 C166.334459,48.6655405 167.922297,48.7162162 169.239865,48.4966216 L169.442568,48.4966216 C175.97973,48.1587838 180.929054,44.0371622 182.381757,37.7195946 C183.175676,34.2567568 183.175676,30.777027 182.381757,27.2972973 C181.148649,21.8581081 177.85473,18.3445946 172.432432,16.8918919 L172.533784,16.9763514 Z M172.939189,36.0304054 C172.939189,36.2331081 172.939189,36.4358108 172.77027,36.6385135 C172.111486,39.5439189 170,41.1148649 167.179054,40.9966216 C164.155405,40.8277027 162.077703,39.0878378 161.773649,36.0641892 C161.562498,33.8451016 161.562498,31.6109795 161.773649,29.3918919 C162.060811,25.8952703 164.239865,23.9864865 167.516892,24.0540541 C170.202703,24.0540541 172.128378,25.625 172.804054,28.2263514 C173.462838,30.8108108 173.006757,35.4391892 172.972973,36.0304054 L172.939189,36.0304054 Z M137.584459,16.402027 C133.868243,15.9966216 130.641892,17.1283784 127.922297,20.4054054 L127.922297,0.320945946 L118.057432,1.52027027 L118.057432,47.9898649 L127.922297,47.9898649 L127.922297,45.2364865 C129.256757,46.1824324 130.540541,47.3310811 132.060811,47.8716216 C137.804054,49.9324324 145.371622,48.2601351 148.023649,40.5743243 C149.72973,35.6418919 149.679054,30.5912162 148.39527,25.6081081 C146.993243,20.0675676 143.293919,17.0101351 137.584459,16.402027 L137.584459,16.402027 Z M139.070946,36.5371622 C138.631757,39.5945946 136.199324,41.1993243 133.310811,40.9797297 C132.584459,40.9797297 131.925676,40.777027 131.351351,40.5405405 C129.02027,39.2060811 128.310811,36.9594595 128.108108,35.5405405 C127.939189,33.3614865 127.77027,28.8006757 128.834459,26.6554054 C129.72973,25 131.317568,24.1047297 133.39527,24.0371622 C136.368243,23.8682432 138.614865,25.4054054 139.054054,28.4290541 C139.425676,31.0810811 139.442568,33.8851351 139.054054,36.5371622 L139.070946,36.5371622 Z" id="Shape"></path>
                </g>
            </g>
        </g>
    </g>
</svg>