<?xml version="1.0" encoding="UTF-8" standalone="no"?>
<svg width="250px" height="82px" viewBox="0 0 250 82" version="1.1" xmlns="http://www.w3.org/2000/svg" xmlns:xlink="http://www.w3.org/1999/xlink">
    <!-- Generator: Sketch 39.1 (31720) - http://www.bohemiancoding.com/sketch -->
    <title>google</title>
    <desc>Created with Sketch.</desc>
    <defs></defs>
    <g id="Page-1" stroke="none" stroke-width="1" fill="none" fill-rule="evenodd">
        <g id="Artboard-4" transform="translate(-915.000000, -2811.000000)" fill="#BBBBBB">
            <g id="section4" transform="translate(0.000000, 2600.000000)">
                <g id="google" transform="translate(915.000000, 211.000000)">
                    <path d="M32.0835476,63.125703 C41.4922879,63.125703 48.5822622,60.0528157 54.1323907,54.2791233 C59.8457584,48.5695831 61.6195373,40.5762268 61.6195373,34.1096914 C61.6195373,32.1017295 61.4652956,30.2605631 61.1568123,28.7144966 L32.0835476,28.7144966 L32.0835476,37.3365439 L52.7506427,37.3365439 C52.1336761,42.1864454 50.5077121,45.7276434 48.0501285,48.1910855 C45.0372751,51.1869903 40.3380463,54.5036558 32.0835476,54.5036558 C19.3605398,54.5036558 9.41002571,44.2649747 9.41002571,31.5628515 C9.41002571,18.8607283 19.3605398,8.61563203 32.0835476,8.61563203 C38.9421594,8.61563203 43.9633676,11.316437 47.6587404,14.7806524 L53.7532134,8.69902981 C48.5822622,3.77856088 41.7236504,0 32.0835476,0 C14.6510283,0 0,14.1583767 0,31.5628515 C0,48.9609111 14.6510283,63.125703 32.0835476,63.125703 L32.0835476,63.125703 Z M85.1478149,63.125703 C96.4010283,63.125703 105.578406,54.5036558 105.578406,42.7958907 C105.578406,31.0239736 96.4010283,22.4789089 85.1478149,22.4789089 C73.8753213,22.4789089 64.6979434,31.0239736 64.6979434,42.7958907 C64.6979434,54.5036558 73.8753213,63.125703 85.1478149,63.125703 L85.1478149,63.125703 Z M85.1478149,55.1195163 C78.9717224,55.1195163 73.6439589,50.038667 73.6439589,42.7958907 C73.6439589,35.4889623 78.9717224,30.4915108 85.1478149,30.4915108 C91.311054,30.4915108 96.6323907,35.4889623 96.6323907,42.7958907 C96.6323907,50.038667 91.311054,55.1195163 85.1478149,55.1195163 L85.1478149,55.1195163 Z M129.717224,63.125703 C140.976864,63.125703 150.154242,54.5036558 150.154242,42.7958907 C150.154242,31.0239736 140.976864,22.4789089 129.717224,22.4789089 C118.451157,22.4789089 109.273779,31.0239736 109.273779,42.7958907 C109.273779,54.5036558 118.451157,63.125703 129.717224,63.125703 L129.717224,63.125703 Z M129.717224,55.1195163 C123.547558,55.1195163 118.219794,50.038667 118.219794,42.7958907 C118.219794,35.4889623 123.547558,30.4915108 129.717224,30.4915108 C135.886889,30.4915108 141.208226,35.4889623 141.208226,42.7958907 C141.208226,50.038667 135.886889,55.1195163 129.717224,55.1195163 L129.717224,55.1195163 Z M173.521851,81.3705709 C184.003856,81.3705709 192.885604,75.2183809 192.885604,60.2003656 L192.885604,23.7106299 L184.395887,23.7106299 L184.395887,27.0208802 L184.087404,27.0208802 C182.075835,24.6344207 178.219794,22.4789089 173.374036,22.4789089 C163.187661,22.4789089 153.862468,31.4088864 153.862468,42.8792885 C153.862468,54.2791233 163.187661,63.125703 173.374036,63.125703 C178.219794,63.125703 182.075835,60.9701912 184.087404,58.5067492 L184.395887,58.5067492 L184.395887,61.4320866 C184.395887,69.2137409 180.231362,73.3643841 173.521851,73.3643841 C168.052699,73.3643841 164.652956,69.4446886 163.258355,66.1216078 L155.475578,69.3612908 C157.718509,74.7564855 163.650386,81.3705709 173.521851,81.3705709 L173.521851,81.3705709 Z M174.132391,55.1195163 C167.969152,55.1195163 162.79563,49.9680997 162.79563,42.8792885 C162.79563,35.71991 167.969152,30.4915108 174.132391,30.4915108 C180.231362,30.4915108 185.012853,35.71991 185.012853,42.8792885 C185.012853,49.9680997 180.231362,55.1195163 174.132391,55.1195163 L174.132391,55.1195163 Z M207.994859,2.15551181 L199.048843,2.15551181 L199.048843,61.893982 L207.994859,61.893982 L207.994859,2.15551181 Z M232.51928,63.125703 C241.844473,63.125703 247.249357,57.4354085 249.485861,54.118743 L242.53856,49.5062043 C240.231362,52.8806067 237.069409,55.1195163 232.51928,55.1195163 C227.969152,55.1195163 224.72365,53.0409871 222.647815,48.9609111 L249.871465,37.7150415 L248.946015,35.4119798 C247.249357,30.8700084 242.075835,22.4789089 231.51671,22.4789089 C221.028278,22.4789089 212.313625,30.7224585 212.313625,42.7958907 C212.313625,54.1957255 220.951157,63.125703 232.51928,63.125703 L232.51928,63.125703 Z M221.182519,42.1864454 C220.951157,34.3406391 227.275064,30.3311305 231.825193,30.3311305 C235.372751,30.3311305 238.380463,32.1017295 239.38946,34.6421541 L221.182519,42.1864454 Z" id="Shape"></path>
                </g>
            </g>
        </g>
    </g>
</svg>